<?xml version="1.0" encoding="utf-8"?>
<!-- Generator: Adobe Illustrator 19.1.0, SVG Export Plug-In . SVG Version: 6.00 Build 0)  -->
<svg version="1.1" id="Layer_1" xmlns="http://www.w3.org/2000/svg" xmlns:xlink="http://www.w3.org/1999/xlink" x="0px" y="0px"
	 width="586.2px" height="579.6px" viewBox="0 0 586.2 579.6" style="enable-background:new 0 0 586.2 579.6;" xml:space="preserve"
	>
<style type="text/css">
	.st0{fill:none;stroke:#FFFFFF;stroke-width:6.2457;stroke-miterlimit:10;}
</style>
<path class="st0" d="M3.1,509.2v67.3h83.2l55.7-55.7v-74.2h50v-50h74.2l103.7-103.7c55.7,24.8,123.2,14.5,168.8-31.1
	c59.2-59.2,59.2-155.1,0-214.3c-59.2-59.2-155.1-59.2-214.3,0c-45.7,45.7-55.9,113.2-31.1,168.8L3.1,509.2z M504.3,143.2
	c-16.9,16.9-44.3,16.9-61.2,0c-16.9-16.9-16.9-44.3,0-61.2c16.9-16.9,44.3-16.9,61.2,0C521.2,98.9,521.2,126.3,504.3,143.2z"/>
</svg>
