<?xml version="1.0" encoding="utf-8"?>
<!-- Generator: Adobe Illustrator 19.1.0, SVG Export Plug-In . SVG Version: 6.00 Build 0)  -->
<svg version="1.1" id="Layer_1" xmlns="http://www.w3.org/2000/svg" xmlns:xlink="http://www.w3.org/1999/xlink" x="0px" y="0px"
	 width="585px" height="241.6px" viewBox="0 0 585 241.6" enable-background="new 0 0 585 241.6" xml:space="preserve">
<g>
	<path fill="#FFFFFF" d="M12.1,71.2l290.1,116l270.8-50.8l12.1,1.2l-283.2,53.1l-0.5-0.2L0,70L12.1,71.2z"/>
</g>
<polygon fill="none" stroke="#FFFFFF" stroke-width="3.3868" stroke-miterlimit="10" points="579,120.1 302,172.1 6,53.7 283,1.8 
	"/>
<g>
	<path fill="#FFFFFF" d="M12.1,88.2l290.1,116l270.8-50.8l12.1,1.2l-283.2,53.1l-0.5-0.2L0,87L12.1,88.2z"/>
</g>
<g>
	<path fill="#FFFFFF" d="M12.1,105.1l290.1,116l270.8-50.8l12.1,1.2l-283.2,53.1l-0.5-0.2L0,103.9L12.1,105.1z"/>
</g>
<g>
	<path fill="#FFFFFF" d="M12.1,122l290.1,116l270.8-50.8l12.1,1.2l-283.2,53.1l-0.5-0.2L0,120.8L12.1,122z"/>
</g>
</svg>
