<?xml version="1.0" standalone="no"?>
<!DOCTYPE svg PUBLIC "-//W3C//DTD SVG 1.1//EN" "http://www.w3.org/Graphics/SVG/1.1/DTD/svg11.dtd" >
<svg xmlns="http://www.w3.org/2000/svg">
<metadata></metadata>
<defs>
<font id="baururegular" horiz-adv-x="962" >
<font-face units-per-em="2048" ascent="1536" descent="-512" />
<missing-glyph horiz-adv-x="401" />
<glyph horiz-adv-x="0" />
<glyph unicode="&#xd;" horiz-adv-x="1024" />
<glyph horiz-adv-x="0" />
<glyph horiz-adv-x="0" />
<glyph unicode=" "  horiz-adv-x="401" />
<glyph unicode="&#x09;" horiz-adv-x="401" />
<glyph unicode="&#xa0;" horiz-adv-x="401" />
<glyph unicode="!" horiz-adv-x="210" d="M0 78q0 35 23.5 58.5t58.5 23.5t59.5 -23.5t24.5 -58.5t-24.5 -59.5t-59.5 -24.5t-58.5 24.5t-23.5 59.5zM74 336v1184q0 8 8 8t8 -8v-1184q0 -8 -8 -8t-8 8zM82 10q29 0 48.5 19.5t19.5 48.5t-19.5 47t-48.5 18v-133z" />
<glyph unicode="&#x22;" horiz-adv-x="217" d="M0 1358v235q0 8 8 9q8 0 8 -9v-235q0 -8 -8 -8t-8 8zM86 1358v235q0 8 8 9q8 0 8 -9v-235q0 -8 -8 -8t-8 8z" />
<glyph unicode="#" horiz-adv-x="1073" d="M0 485q0 8 8 9h230l65 368h-227q-8 0 -8 8t8 9h231l84 481q0 6 8 6q8 -2 9 -10l-84 -477h368l84 481q0 6 8 6q8 -2 9 -10l-84 -477h295q8 0 8 -9q0 -8 -8 -8h-299l-64 -368h295q8 0 8 -9q0 -8 -8 -8h-299l-84 -479q0 -6 -8 -6h-2q-6 0 -6 10l84 475h-369l-84 -479 q0 -6 -8 -6h-2q-6 0 -6 10l84 475h-228q-8 0 -8 8zM256 494h367l65 368h-369z" />
<glyph unicode="$" horiz-adv-x="911" d="M2 152v303q0 8 8 8t8 -8l2 -74q0 -82 31 -154.5t84 -127t125 -87t152 -35.5v582q-2 0 -3 1t-3 1q-162 61 -256 172q-47 53 -78 116.5t-49 139.5q-8 33 -13 70q-6 33 -6 67q0 86 32 161t87 132.5t130 91t159 35.5v56q0 8 8 8t8 -8v-56q82 -2 147.5 -32.5t110.5 -90.5 q49 -63 70 -151v147q0 8 8 8t8 -8v-303q0 -8 -8 -8t-8 8v12q0 72 -17.5 143.5t-56.5 129t-101.5 93.5t-152.5 36v-662l18 -6q188 -72 277 -155q117 -109 117 -269q4 -14 4 -28.5v-28.5q0 -86 -33 -163t-89 -133t-132 -90t-162 -34v-188q0 -8 -8 -9q-8 0 -8 9v188 q-72 2 -136.5 27.5t-117 68.5t-89 101.5t-53.5 126.5l2 -133q0 -8 -8 -9q-8 0 -8 9zM31 1204q10 -63 45 -112.5t86 -88t114.5 -70.5t135.5 -59v656q-70 -2 -133.5 -27.5t-113.5 -67.5t-85 -99.5t-49 -125.5v-4v-2zM43 1116q25 -94 117 -168q53 -45 119.5 -77.5t132.5 -59.5 v47q-61 23 -126 52.5t-118 68.5q-88 61 -125 137zM428 -23q68 0 129 21.5t111.5 59.5t87.5 90.5t55 113.5q-18 55 -56 98t-88.5 77t-111.5 62.5t-127 53.5v-576zM428 805q10 -6 23 -8q70 -29 141.5 -64t130.5 -86q55 -49 88 -115q-16 61 -54 109.5t-87 86.5t-109 66.5 t-119 51.5q-4 2 -7 3t-7 3v-47z" />
<glyph unicode="%" horiz-adv-x="888" d="M-2 4l836 1520q4 8 10 4q8 -4 4 -12l-836 -1520q-4 -4 -8 -4h-4q-6 6 -2 12zM70 1135v213q0 43 25.5 76.5t66.5 43.5q14 6 35 7q53 -2 92 -38t39 -89v-213q0 -53 -39 -90t-92 -37q-14 0 -35 4q-41 12 -66.5 46t-25.5 77zM137 1114q0 -49 31 -86q4 -2 10 -2q-29 39 -28 88 v254q0 49 28 88q-6 0 -10 -2q-31 -37 -31 -86v-254zM166 1114q0 -51 35 -90q47 0 78.5 33t31.5 78v213q0 45 -31.5 77.5t-78.5 32.5q-35 -39 -35 -90v-254zM518 121v211q0 43 25.5 77t66.5 46q14 6 35 6q53 -2 92 -39t39 -90v-211q0 -53 -39 -90t-92 -37q-14 0 -35 4 q-41 12 -66.5 46t-25.5 77zM586 100q0 -53 30 -86q4 -2 5.5 -2t5.5 -2q-29 41 -29 90v254q0 47 29 88q-4 0 -5 -1t-6 -1q-31 -37 -30 -86v-254zM614 100q0 -51 35 -90q47 0 79 32t32 79v211q0 47 -32 78.5t-79 33.5q-35 -39 -35 -90v-254z" />
<glyph unicode="&#x26;" horiz-adv-x="1269" d="M0 518q0 199 158 338q94 86 256 145l-95 121h-2q-47 66 -47 148q0 51 19.5 97t53.5 80t80 53.5t97 19.5t96.5 -19.5t79 -53.5t53 -80t19.5 -97q0 -98 -74 -162q-59 -53 -172 -86q-23 -6 -42 -13.5t-40 -13.5l539 -682q43 92 43 205q0 8 8 8t8 -8q0 -115 -47 -219 l232 -295q6 -4 0 -10t-13 0l-227 289q-37 -74 -96 -133q-74 -74 -168 -113t-199 -39q-104 0 -199.5 39t-168.5 113q-74 74 -113 169t-39 199zM16 518q0 -104 40 -196.5t107.5 -160t160 -107.5t196.5 -40q82 0 156 24.5t135 67.5l-610 764q-185 -139 -185 -352zM287 1270 q0 -74 45 -137l98 -125q43 16 88 28q233 68 234 234q0 49 -18.5 91t-50.5 73.5t-74 50t-89 18.5q-49 0 -91 -18.5t-73.5 -50t-50 -73.5t-18.5 -91zM340 952l586 -733q12 18 23.5 37.5t21.5 40.5l-547 692q-23 -10 -43.5 -18t-40.5 -19z" />
<glyph unicode="'" horiz-adv-x="98" d="M0 1358v235q0 8 8 9q8 0 8 -9v-235q0 -8 -8 -8t-8 8z" />
<glyph unicode="(" horiz-adv-x="149" d="M-8 702q0 186 11 340t24.5 264.5t26.5 171.5l12 62q0 10 8 6q10 0 6 -10l-12 -62q-11 -61 -24 -170.5t-24.5 -263t-11.5 -338.5q0 -184 11.5 -337.5t24.5 -263t24 -171.5l12 -61q4 -10 -6 -10h-2q-6 0 -6 6l-12 61q-13 62 -26.5 172.5t-24.5 264t-11 339.5z" />
<glyph unicode=")" horiz-adv-x="145" d="M-2 -131l11 61q11 62 24.5 171.5t25 263t11.5 337.5t-11.5 338t-25 263.5t-24.5 170.5l-11 62q0 10 6 10q6 2 10 -6l12 -62q11 -61 24 -171.5t24.5 -264t11.5 -340.5q0 -186 -11.5 -339.5t-24.5 -264t-24 -172.5l-12 -61q-4 -6 -8 -6h-2q-6 0 -6 10z" />
<glyph unicode="*" horiz-adv-x="382" d="M2 1149q-6 4 0 10l145 148l-145 145q-6 4 0 10t12 0l138 -137v195q0 8 8 8t8 -8v-195l137 137q6 6 12 0q4 -6 0 -10l-145 -145l145 -148q4 -6 0 -10q-2 -2 -6 -2t-6 2l-137 137v-194q0 -8 -8 -9q-8 0 -8 9v194l-138 -137q-2 -2 -6 -2t-6 2z" />
<glyph unicode="+" horiz-adv-x="491" d="M0 745q0 8 8 9h215v215q0 8 8 8t9 -8v-215h215q8 0 8 -9q0 -8 -8 -8h-215v-215q0 -8 -9 -8q-8 0 -8 8v215h-215q-8 0 -8 8z" />
<glyph unicode="," horiz-adv-x="241" d="M0 78q0 35 23.5 58.5t58.5 23.5t59.5 -23.5t24.5 -58.5q0 -18 -10 -39l-103 -256q-4 -6 -8 -6h-2q-6 2 -6 12l88 217q-18 -12 -43 -12q-35 0 -58.5 24.5t-23.5 59.5zM82 10q29 0 48.5 19.5t19.5 48.5t-19.5 47t-48.5 18v-133z" />
<glyph unicode="-" horiz-adv-x="536" d="M0 745q0 8 8 9h447q8 0 8 -9q0 -8 -8 -8h-447q-8 0 -8 8zM0 745q0 8 8 9h447q8 0 8 -9q0 -8 -8 -8h-447q-8 0 -8 8z" />
<glyph unicode="." horiz-adv-x="215" d="M6 78q0 35 23.5 58.5t58.5 23.5t59.5 -23.5t24.5 -58.5t-24.5 -59.5t-59.5 -24.5t-58.5 24.5t-23.5 59.5zM88 10q29 0 48.5 19.5t19.5 48.5t-19.5 47t-48.5 18v-133z" />
<glyph unicode="/" horiz-adv-x="487" d="M4 -131l416 1671q4 8 10 6q6 0 6 -10l-418 -1671q0 -6 -6 -6h-2q-12 0 -6 10z" />
<glyph unicode="0" horiz-adv-x="929" d="M0 393v737q0 86 33 164t92 140q59 59 137 92t164 33t164 -33t137 -92q59 -61 92 -139t33 -165v-737q0 -86 -33 -163.5t-92 -137.5q-59 -59 -137 -92t-164 -33t-164 33t-137 92t-92 137t-33 164zM16 393q0 -84 33 -158.5t88.5 -130t130 -88t158.5 -32.5q16 0 27 2 q61 68 95 153.5t34 177.5v887q0 94 -34 180t-99 156q-8 2 -23 2q-84 0 -158.5 -32.5t-130 -88t-88.5 -130t-33 -161.5v-737zM688 80q68 57 108 138t40 175v737q0 96 -40 177.5t-106 136.5q59 -109 60 -238v-887q0 -129 -62 -239z" />
<glyph unicode="1" horiz-adv-x="516" d="M2 1243q-6 4 2 12l361 269q2 2 8 2q4 -4 4 -8v-1502h57q8 0 8 -8t-8 -8h-371q-8 0 -8 8t8 8h52v1303l-103 -78q-6 -6 -10 2zM274 16h86v1485l-86 -63v-1422z" />
<glyph unicode="2" horiz-adv-x="829" d="M0 10l580 1442q-39 23 -83 36t-94 13h-32q-70 0 -131.5 -26.5t-107.5 -72.5t-72.5 -107.5t-26.5 -131.5q0 -8 -8 -8t-9 8q0 74 28 138.5t76 112.5t112.5 76t138.5 28h32q63 0 123 -21.5t107 -62.5t77.5 -96.5t41.5 -114.5l-482 -1207h459v90q0 8 8 9q8 0 8 -9v-98 q0 -8 -8 -8h-729q-6 0 -6 4q-2 2 -2 6zM158 16h94l483 1209q-8 63 -45 118z" />
<glyph unicode="3" horiz-adv-x="886" d="M0 248q-2 6 6 10q6 4 10 -4q20 -61 59.5 -110.5t89.5 -85t109.5 -55t124.5 -19.5q66 70 99.5 155.5t33.5 179.5v189q0 94 -33.5 180t-99.5 156q-8 0 -8 8t8 8q63 0 119.5 24.5t98.5 66.5t67 98.5t25 119.5v29q0 63 -25 119.5t-67 98.5t-98 66.5t-120 24.5h-30 q-63 0 -119.5 -24.5t-98.5 -66.5t-67 -97t-25 -119q0 -8 -8 -8t-8 8q0 66 24.5 124t71.5 106q47 45 105.5 69.5t124.5 24.5h30q68 0 126.5 -25.5t103.5 -70t70.5 -103.5t25.5 -127v-29q0 -135 -96 -231q-63 -63 -152 -86q45 -8 87 -25.5t77 -42.5q84 -57 135 -149t51 -203 v-39q0 -86 -32.5 -163.5t-92.5 -137.5q-59 -59 -134.5 -91t-161.5 -34h-5h-4q-66 0 -128 20.5t-115 59.5q-106 76 -154 201zM664 80q68 57 107.5 138t39.5 175v39q0 96 -40 177t-105 136q59 -109 59 -237v-189q0 -129 -61 -239z" />
<glyph unicode="4" horiz-adv-x="856" d="M0 600q0 6 2 8l612 914q2 4 9 4q6 -4 6 -8v-906h125q8 0 8 -8t-8 -8h-125v-580h57q8 0 8 -8t-8 -8h-371q-8 0 -8 8t8 8h52v580h-359q-4 0 -8 4zM23 612h344v512zM526 16h86v1475l-86 -129v-1346z" />
<glyph unicode="5" horiz-adv-x="925" d="M0 248q-2 6 6 10q6 4 10 -4q20 -61 59.5 -110.5t89.5 -85t109.5 -55t124.5 -19.5q66 70 99.5 155.5t33.5 179.5v291q0 94 -33.5 180.5t-99.5 155.5q-109 0 -203 -54t-149 -149q-2 -4 -10 -4q-6 6 -4 9l39 763q0 8 8 9h694q8 0 8 -9v-92q0 -8 -8 -8t-8 8v84h-678l-39 -725 q29 39 62.5 71t74.5 54q96 59 215 60h2q86 -2 163 -34t136 -91q59 -61 92 -139t33 -164v-142q0 -86 -32.5 -163.5t-92.5 -137.5q-59 -59 -134.5 -91t-161.5 -34h-5h-4q-66 0 -128 20.5t-115 59.5q-106 76 -154 201zM664 80q68 57 107.5 138t39.5 175v142q0 96 -40 177 t-105 136q59 -109 59 -238v-291q0 -129 -61 -239z" />
<glyph unicode="6" horiz-adv-x="921" d="M0 393v123q0 205 59 393q59 186 162 322q102 137 242 217q141 80 297 80v-17q-150 0 -285 -74.5t-239 -215.5q-88 -117 -141.5 -260.5t-69.5 -303.5q31 92 100 162q59 59 137 92t164 33t164 -33t137 -92q59 -61 92 -139t33 -164v-123q0 -86 -33 -163.5t-92 -137.5 q-59 -59 -137 -92t-164 -33t-164 33t-137 92t-92 137t-33 164zM16 393q0 -84 33 -158.5t88.5 -130t130 -88t158.5 -32.5q16 0 27 2q61 68 95 153.5t34 177.5v273q0 94 -34 180t-99 156q-8 2 -23 2q-84 0 -158.5 -33t-130 -88t-88.5 -130t-33 -161v-123zM688 80 q68 57 108 138t40 175v123q0 96 -40 177t-106 136q59 -109 60 -237v-273q0 -129 -62 -239z" />
<glyph unicode="7" horiz-adv-x="894" d="M0 1438v73q0 8 8 9h842q2 0 6 -4q2 -2 2 -7l-346 -1493h55q8 0 8 -8t-8 -8h-370q-8 0 -9 8q0 8 9 8h53l344 1487h-578v-65q0 -8 -8 -8t-8 8zM410 16h86l344 1487h-86z" />
<glyph unicode="8" horiz-adv-x="997" d="M0 393v105q0 86 34 163.5t99 139.5q100 92 240 117q-90 18 -154 73q-98 86 -98 215v15q0 131 98 223t238 92q139 0 237 -92t99 -223v-15q0 -129 -99 -215q-61 -53 -151 -76q94 -16 174 -67q16 -10 31.5 -22.5t31.5 -24.5q66 -61 99.5 -139t33.5 -164v-105 q0 -86 -33.5 -163.5t-99.5 -137.5q-66 -59 -148.5 -92t-174.5 -33t-175 33t-149 92t-99.5 137t-33.5 164zM16 393q0 -84 35 -158.5t94.5 -130t139.5 -88t172 -32.5q18 0 28 2q68 68 104 153.5t36 177.5v254q0 94 -37 180.5t-105 155.5h-26q-92 0 -172 -31.5t-139.5 -87 t-94.5 -130t-35 -160.5v-105zM137 1206q0 -61 24.5 -112.5t67.5 -89t101.5 -59t126.5 -21.5h8q68 2 124 23.5t98 59t65.5 89t23.5 110.5v15q0 61 -25.5 115.5t-68.5 95.5t-101.5 64.5t-123.5 23.5q-66 0 -124.5 -23.5t-101.5 -64.5t-68.5 -95.5t-25.5 -115.5v-15zM737 78 q74 57 117 139t43 176v105q0 96 -43 176t-115 137q63 -109 64 -238v-254q0 -129 -66 -241z" />
<glyph unicode="9" horiz-adv-x="903" d="M0 1004v122q0 86 33 164t92 137q59 61 137 93t164 32t164 -32t137 -93q59 -59 92 -137t33 -164v-122q0 -203 -59 -394q-59 -186 -162 -321q-106 -139 -242 -217q-141 -80 -297 -80q-8 0 -8 8t8 8q150 0 285 75t239 216q88 117 141.5 260t69.5 303q-33 -94 -100 -160 q-59 -61 -137 -92.5t-164 -31.5t-164 31.5t-137 92.5q-59 59 -92 137.5t-33 164.5zM16 1004q0 -86 33 -161t88.5 -130.5t130 -87t158.5 -31.5h23q66 70 99.5 156t33.5 180v274q0 92 -34 177t-95 155h-27q-84 0 -158.5 -33t-130 -88t-88.5 -130t-33 -159v-122zM473 596 q59 6 105 27q106 135 106 305v274q0 84 -27.5 162t-81.5 143q-23 10 -48 16.5t-52 10.5q123 -145 123 -330v-274q0 -92 -33 -178t-92 -156z" />
<glyph unicode=":" horiz-adv-x="233" d="M0 78q0 35 23.5 58.5t58.5 23.5t59.5 -23.5t24.5 -58.5t-24.5 -59.5t-59.5 -24.5t-58.5 24.5t-23.5 59.5zM0 1016q0 35 23.5 59.5t58.5 24.5t59.5 -24.5t24.5 -59.5t-24.5 -58.5t-59.5 -23.5t-58.5 23.5t-23.5 58.5zM82 10q29 0 48.5 19.5t19.5 48.5t-19.5 47t-48.5 18 v-133zM82 950q29 0 48.5 19.5t19.5 46.5q0 29 -19.5 48t-48.5 19v-133z" />
<glyph unicode=";" horiz-adv-x="206" d="M0 78q0 35 23.5 58.5t58.5 23.5t59.5 -23.5t24.5 -58.5q0 -18 -10 -39l-103 -256q-4 -6 -8 -6h-2q-6 2 -6 12l88 217q-18 -12 -43 -12q-35 0 -58.5 24.5t-23.5 59.5zM0 1014q0 35 23.5 59.5t58.5 24.5t59.5 -24.5t24.5 -59.5t-24.5 -58.5t-59.5 -23.5t-58.5 23.5 t-23.5 58.5zM82 10q29 0 48.5 19.5t19.5 48.5t-19.5 47t-48.5 18v-133zM82 948q29 0 48.5 19.5t19.5 46.5q0 29 -19.5 48t-48.5 19v-133z" />
<glyph unicode="&#x3c;" horiz-adv-x="321" d="M2 750q-4 6 0 10l236 299q4 6 12 2q4 -8 0 -12l-232 -293l232 -310q8 -4 -2 -10q0 -2 -4 -2t-6 2z" />
<glyph unicode="=" horiz-adv-x="536" d="M0 653q0 8 8 9h447q8 0 8 -9q0 -8 -8 -8h-447q-8 0 -8 8zM0 838q0 8 8 8h447q8 0 8 -8q0 -9 -8 -9h-447q-8 0 -8 9z" />
<glyph unicode="&#x3e;" horiz-adv-x="311" d="M-1 441q-1 3 3 5l231 310l-231 293q-4 4 0 12q8 4 12 -2l236 -299q4 -4 0 -10l-236 -314q-2 -2 -6 -2t-4 2q-4 2 -5 5z" />
<glyph unicode="?" horiz-adv-x="862" d="M0 1141q0 80 30.5 150.5t83 122.5t124 83t151.5 31t150.5 -31t123 -83t83 -122.5t30.5 -150.5t-29.5 -150.5t-81 -123t-121 -83t-147.5 -32.5v-416q0 -8 -8 -8t-8 8v424q0 8 8 8q76 0 143.5 29.5t118.5 80t80 118t29 145.5q0 76 -29 143.5t-80 118.5t-118.5 79.5 t-143.5 28.5q-78 0 -145.5 -28.5t-118.5 -79.5t-80 -118.5t-29 -143.5q0 -8 -8 -8t-8 8zM305 78q0 35 24.5 58.5t59.5 23.5t58.5 -23.5t23.5 -58.5t-23.5 -59.5t-58.5 -24.5t-59.5 24.5t-24.5 59.5zM389 10q27 0 46.5 19.5t19.5 48.5t-19.5 47t-46.5 18v-133z" />
<glyph unicode="@" horiz-adv-x="225" d="M0 78q0 35 23.5 58.5t58.5 23.5t59.5 -23.5t24.5 -58.5t-24.5 -59.5t-59.5 -24.5t-58.5 24.5t-23.5 59.5zM82 10q29 0 48.5 19.5t19.5 48.5t-19.5 47t-48.5 18v-133z" />
<glyph unicode="A" horiz-adv-x="1013" d="M0 8q0 8 8 8h55l330 1497q0 6 8 7h66q8 0 8 -7l420 -1497h59q8 0 9 -8q0 -8 -9 -8h-370q-8 0 -9 8q0 8 9 8h49l-137 457h-316l-100 -457h53q8 0 8 -8t-8 -8h-125q-8 0 -8 8zM184 489h308l-177 594zM391 1427l397 -1411h89l-416 1487h-53z" />
<glyph unicode="B" horiz-adv-x="897" d="M0 8q0 8 8 8h60v1487h-60q-8 0 -8 8t8 9h371q143 0 246 -99q100 -100 100 -243v-29q0 -59 -18.5 -111.5t-50 -96.5t-77 -76t-98.5 -48q76 -6 142.5 -39t115.5 -86t77 -121.5t28 -146.5v-31q0 -82 -32 -153.5t-85 -125t-125 -84t-153 -30.5h-441q-8 0 -8 8zM223 16h86 v1487h-86v-1487zM326 16h123q78 0 147.5 30t120.5 81t80.5 119.5t29.5 146.5v31q0 78 -29.5 146.5t-80.5 119.5t-121 81t-147 30h-123v-785zM326 817h53q68 0 128 26.5t105 72t71 105.5t26 128v29q0 68 -26 127t-71 103t-105.5 69.5t-127.5 25.5h-53v-686z" />
<glyph unicode="C" horiz-adv-x="956" d="M0 393v737q0 86 33 164t92 140q59 59 137 92t164 33q78 0 150.5 -27t132.5 -78q94 -80 129 -190v155q0 8 8 8t8 -8v-303q0 -8 -8 -8t-8 8v78q-12 74 -49 138.5t-92.5 110.5t-125 72.5t-145.5 26.5q-66 -70 -99.5 -156t-33.5 -180v-887q0 -94 33.5 -180t99.5 -155 q76 0 145.5 26.5t125 72.5t92 109.5t49.5 137.5q2 6 10 6q7 0 7 -5q0 -2 -1 -5q-12 -78 -50 -143.5t-95.5 -112.5t-130 -75t-152.5 -28q-86 0 -164 33t-137 92t-92 137t-33 164zM190 319q0 -88 31 -169.5t88 -149.5q23 -6 46.5 -10t47.5 -6q-61 72 -94 157.5t-33 177.5v887 q0 92 33 178t94 156q-47 0 -96 -16q-55 -66 -86 -148t-31 -170v-887z" />
<glyph unicode="D" horiz-adv-x="931" d="M0 8q0 8 8 8h55v1487h-55q-8 0 -8 8t8 9h418q86 0 161 -33t130 -88.5t88 -130t33 -158.5v-700q0 -84 -33 -159t-88 -130t-130 -88t-161 -33h-418q-8 0 -8 8zM223 16h86v1487h-86v-1487zM326 16h100q82 0 153.5 31t125 84t85 125t31.5 154v700q0 82 -31.5 153.5t-85 125 t-125 84t-153.5 30.5h-100v-1487z" />
<glyph unicode="E" horiz-adv-x="878" d="M0 8q0 8 8 8h55v1487h-55q-8 0 -8 8t8 9h723q8 0 8 -9v-53q0 -8 -8 -8t-8 8v45h-397v-686h229q8 0 8 -8t-8 -8h-229v-785h458v64q1 8 9 8t8 -8v-72q0 -8 -8 -8h-785q-8 0 -8 8zM223 16h86v1487h-86v-1487z" />
<glyph unicode="F" horiz-adv-x="800" d="M0 8q0 8 8 8h51v1487h-51q-8 0 -8 8t8 9h752v-76q0 -8 -8 -8t-9 8v59h-421v-698h208q8 0 9 -8q0 -8 -9 -9h-208v-772h57q8 0 8 -8t-8 -8h-371q-8 0 -8 8zM219 16h86v1487h-86v-1487z" />
<glyph unicode="G" horiz-adv-x="937" d="M0 393v737q0 86 33 164t92 140q59 59 137 92t164 33t164 -33t139 -92q80 -80 111 -187v172q0 8 8 8t8 -8v-303q0 -8 -8 -8t-8 8v14q0 86 -33 161t-89 130.5t-131 88t-161 32.5q-66 -70 -99.5 -156t-33.5 -180v-887q0 -94 33.5 -180t99.5 -155q84 0 158.5 32.5t130 88 t88.5 130t33 158.5v228h-244q-8 0 -8 8t8 8h252q8 0 8 -8v-236q0 -86 -33 -163.5t-92 -137.5q-59 -59 -137 -92t-164 -33t-164 33t-137 92t-92 137t-33 164zM190 319q0 -88 31 -169.5t88 -149.5q23 -6 46.5 -10t47.5 -6q-61 72 -94 157.5t-33 177.5v887q0 92 33 178t94 156 q-47 0 -96 -16q-55 -66 -86 -148t-31 -170v-887z" />
<glyph unicode="H" horiz-adv-x="1001" d="M0 8q0 8 8 8h51v1487h-51q-8 0 -8 8t8 9h371q8 0 8 -9q0 -8 -8 -8h-57v-672h262v672h-52q-8 0 -8 8t8 9h371q8 0 8 -9q0 -8 -8 -8h-57v-1487h57q8 0 8 -8t-8 -8h-371q-8 0 -8 8t8 8h52v799h-262v-799h57q8 0 8 -8t-8 -8h-371q-8 0 -8 8zM219 16h86v1487h-86v-1487z M743 16h86v1487h-86v-1487z" />
<glyph unicode="I" horiz-adv-x="481" d="M0 8q0 8 8 8h51v1487h-51q-8 0 -8 8t8 9h371q8 0 8 -9q0 -8 -8 -8h-57v-1487h57q8 0 8 -8t-8 -8h-371q-8 0 -8 8zM219 16h86v1487h-86v-1487z" />
<glyph unicode="J" horiz-adv-x="980" d="M0 395q0 8 8 8t8 -8q0 -86 33 -160.5t88.5 -130t130 -88t158.5 -32.5h16.5t18.5 2q61 68 95 153.5t34 179.5v1184h-53q-8 0 -9 8q0 8 9 9h374q8 0 9 -9q0 -8 -9 -8h-59v-1110q0 -86 -33 -163.5t-92 -137.5q-59 -59 -137 -92t-164 -33t-164 33t-137 92q-59 61 -92 139 t-33 164zM692 84q66 55 105 136t39 173v1110h-86v-1186q0 -123 -58 -233z" />
<glyph unicode="K" horiz-adv-x="1007" d="M0 8q0 8 8 8h55v1487h-55q-8 0 -8 8t8 9h371q8 0 8 -9q0 -8 -8 -8h-53v-745l456 745h-49q-8 0 -8 8t8 9h125q8 0 8 -9q0 -8 -8 -8h-55l-389 -631l450 -856h56q8 0 8 -8t-8 -8h-125q-8 0 -9 8q0 8 9 8h51l-440 840l-80 -129v-711h53q8 0 8 -8t-8 -8h-371q-8 0 -8 8z M223 16h86v1487h-86v-1487z" />
<glyph unicode="L" horiz-adv-x="802" d="M0 8q0 8 8 8h51v1487h-51q-8 0 -8 8t8 9h371q8 0 8 -9q0 -8 -8 -8h-57v-1487h409v90q0 9 8 9t9 -9v-98q0 -8 -9 -8h-731q-8 0 -8 8zM219 16h86v1487h-86v-1487z" />
<glyph unicode="M" horiz-adv-x="1191" d="M0 1511q0 8 8 9h371q8 0 8 -9q0 -8 -8 -8h-47l250 -1044l204 1044h-49q-8 0 -8 8t8 9h371q8 0 8 -9q0 -8 -8 -8h-57v-1487h57q8 0 8 -8t-8 -8h-371q-8 0 -8 8t8 8h51v1411l-278 -1421q0 -8 -8 -8h-66q-8 0 -8 8l-344 1436v-1426h53q8 0 8 -8t-8 -8h-125q-8 0 -8 8t8 8h56 v1487h-60q-8 0 -8 8zM225 1503l310 -1288l38 205l-258 1083h-90zM948 16h86v1487h-86v-1487z" />
<glyph unicode="N" horiz-adv-x="921" d="M0 6q0 8 8 8h55l-2 1489h-53q-8 0 -8 8t8 9h135q4 0 7 -4l622 -1008v991h-55q-8 0 -8 8t8 9h125q8 0 8 -9q0 -8 -8 -8h-54v-1491q0 -8 -8 -8q-10 0 -10 8l-690 1129v-1123h53q8 0 8 -8t-8 -8h-125q-8 0 -8 8zM80 1442l692 -1131v166l-635 1026h-57v-61z" />
<glyph unicode="O" horiz-adv-x="948" d="M0 391v737q0 86 33 164t92 140q59 59 137 91.5t164 32.5t164 -32.5t137 -91.5q59 -61 92 -139.5t33 -164.5v-737q0 -86 -33 -163.5t-92 -137.5q-59 -59 -137 -92t-164 -33t-164 33t-137 92t-92 137t-33 164zM168 317q-1 -174 108 -307q45 -18 101 -24q-59 70 -91 153.5 t-32 175.5v887q0 92 32.5 178t92.5 156q-55 -6 -105 -25q-106 -137 -106 -307v-887zM270 315q0 -92 33 -178t96 -153q10 -2 27 -2q84 0 158.5 32.5t130 88t88.5 130t33 158.5v737q0 86 -33 161t-88.5 130.5t-130 88t-158.5 32.5q-16 0 -23 -2q-66 -70 -99.5 -156t-33.5 -180 v-887z" />
<glyph unicode="P" horiz-adv-x="876" d="M0 8q0 8 8 8h60v1487h-60q-8 0 -8 8t8 9h441q72 0 136 -26t113 -73q51 -49 78 -112.5t27 -134.5v-33q0 -74 -27.5 -138.5t-76 -112.5t-113 -76t-137.5 -28h-125v-770h53q8 0 8 -8t-8 -8h-369q-8 0 -8 8zM223 16h84v1487h-84v-1487zM324 803h125q70 0 131 26.5t107 72.5 t72.5 107.5t26.5 131.5v33q0 70 -26.5 130t-71.5 104t-107.5 69.5t-131.5 25.5h-125v-700z" />
<glyph unicode="Q" horiz-adv-x="935" d="M0 393v737q0 86 33 164t92 140q59 59 137 92t164 33t164 -33t137 -92q59 -61 92 -139t33 -165v-737q0 -86 -33 -163.5t-92 -137.5q-63 -63 -143 -94q8 -14 12 -35q2 -10 4 -19.5t4 -19.5q12 -76 29 -135q10 -33 35.5 -54.5t54.5 -21.5q6 0 6 -4q0 -6 -6 -6h-107 q-35 0 -62.5 23.5t-37.5 58.5q-10 29 -16 63.5t-13 73.5q-4 10 -5 19.5t-3 19.5q0 4 -1 5t-1 5q-12 -2 -25.5 -3t-25.5 -1q-86 0 -164 33t-137 92t-92 137t-33 164zM193 319q0 -88 29.5 -169.5t88.5 -149.5q47 -14 95 -16q-61 72 -94 157.5t-33 177.5v887q0 92 32.5 178 t91.5 156q-45 0 -94 -16q-57 -66 -86.5 -148t-29.5 -170v-887zM295 319q0 -94 33.5 -180t99.5 -155q10 0 21.5 1t21.5 1q-12 23 -34.5 37t-47.5 14q-6 0 -6 4q0 6 6 6h107q44 0 77 -37q57 23 105.5 61t83.5 88t54.5 109.5t19.5 124.5v737q0 86 -33 161t-88.5 130.5t-130 88 t-158.5 32.5q-63 -70 -97 -156t-34 -180v-887z" />
<glyph unicode="R" horiz-adv-x="1060" d="M0 8q0 8 8 8h60v1487h-60q-8 0 -8 8t8 9h441q72 0 136 -26t113 -73q51 -49 78 -112.5t27 -134.5v-33q0 -68 -23.5 -127.5t-64.5 -105.5t-96.5 -77.5t-118.5 -39.5q45 -16 77.5 -55.5t43.5 -86.5q8 -47 22 -117.5t29.5 -144.5t30 -138.5t24.5 -98.5q16 -59 64.5 -96.5 t105.5 -37.5h61q8 0 9 -8q0 -8 -9 -8h-61q-63 0 -115.5 41t-70.5 104q-10 35 -24.5 99.5t-30 138.5t-30 144.5t-22.5 117.5q-10 59 -60 100t-110 41h-110v-770h53q8 0 8 -8t-8 -8h-369q-8 0 -8 8zM223 16h84v1487h-84v-1487zM324 803h125q70 0 131 26.5t107 72.5t72.5 107.5 t26.5 131.5v33q0 70 -26.5 130t-71.5 104t-107.5 69.5t-131.5 25.5h-125v-700z" />
<glyph unicode="S" horiz-adv-x="911" d="M0 152v303q0 8 8 8t8 -8v-80q0 -82 33 -155t87 -126t127 -85t157 -32q70 0 133 23t113.5 63.5t87.5 95t55 120.5q-10 72 -47 127t-93.5 98t-128 76.5t-149.5 64.5q-180 68 -274 166q-115 119 -115 281q-2 8 -2 16v18q0 86 33 163t90 134.5t134 90t163 32.5 q168 0 260 -123q49 -63 70 -151v145q0 8 8 8t8 -8v-303q0 -8 -8 -8t-8 8v14q0 74 -17.5 146t-56.5 128t-101.5 92t-154.5 36q-68 0 -130.5 -21.5t-113.5 -60.5t-88 -92.5t-55 -116.5q16 -61 55 -109.5t94.5 -87t122 -69.5t135.5 -58q72 -27 145.5 -62.5t133.5 -88.5 q121 -106 121 -264v-119q0 -86 -33 -163t-90.5 -134t-134 -90t-162.5 -33q-72 0 -136.5 22.5t-117.5 62.5t-92 96.5t-58 121.5v-112q0 -8 -8 -9q-8 0 -8 9zM25 1208q12 -68 50 -122t94 -96t124.5 -75.5t142.5 -62.5q72 -27 145.5 -62.5t133.5 -87.5q80 -70 106 -161 q-8 68 -38.5 121t-81 96t-118 77.5t-149.5 65.5q-63 25 -132 55.5t-128 71.5q-114 80 -149 180z" />
<glyph unicode="T" d="M0 1446v67q0 8 8 9h883q8 0 8 -9v-67q0 -8 -8 -8t-8 8v59h-305v-1489h57q8 0 8 -8t-8 -8h-307h-4h-5h-55q-8 0 -8 8t8 8h51v1489h-299v-59q0 -8 -8 -8t-8 8zM475 16h86v1489h-86v-1489z" />
<glyph unicode="U" horiz-adv-x="1038" d="M0 1511q0 8 8 9h371q8 0 8 -9q0 -8 -8 -8h-49v-1186q0 -92 32.5 -178t96.5 -153q6 -2 13 -2h13q84 0 159 32.5t130 88t88 130t33 158.5v1110h-53q-8 0 -8 8t8 9h125q8 0 8 -9q0 -8 -8 -8h-56v-1110q0 -86 -32.5 -163.5t-92.5 -137.5q-59 -59 -137 -92t-164 -33t-163.5 33 t-137.5 92q-59 59 -92 137t-33 164v1110h-51q-8 0 -8 8zM227 315q0 -168 103 -301q45 -20 104 -26q-59 70 -90 153.5t-31 175.5v1186h-86v-1188z" />
<glyph unicode="V" horiz-adv-x="1028" d="M0 1511q0 8 8 9h371q8 0 8 -9q0 -8 -8 -8h-51l321 -1081l256 1081h-53q-8 0 -8 8t8 9h125q8 0 8 -9q0 -8 -8 -8h-55l-355 -1497q0 -8 -8 -8h-65q-2 0 -9 6l-419 1499h-58q-8 0 -8 8zM219 1503l379 -1300l43 186l-330 1114h-92z" />
<glyph unicode="W" horiz-adv-x="1345" d="M0 1511q0 8 8 9h371q8 0 8 -9q0 -8 -8 -8h-51l250 -1044l77 397l-155 647h-58q-8 0 -8 8t8 9h371q8 0 8 -9q0 -8 -8 -8h-51l250 -1044l205 1044h-54q-8 0 -8 8t8 9h125q8 0 8 -9q0 -8 -8 -8h-55l-293 -1497q0 -8 -8 -8h-66q-4 0 -8 8l-194 811l-158 -811q0 -8 -8 -8h-66 q-4 0 -8 8l-358 1497h-58q-8 0 -8 8zM223 1503l307 -1284l39 201l-258 1083h-88zM657 1503l308 -1286l41 203l-261 1083h-88z" />
<glyph unicode="X" horiz-adv-x="1118" d="M0 1511q0 8 8 9h371q8 0 8 -9q0 -8 -8 -8h-53l247 -565l224 565h-52q-8 0 -8 8t8 9h125q8 0 9 -9q0 -8 -9 -8h-55l-233 -585l393 -902h59q8 0 8 -8t-8 -8h-370q-8 0 -9 8q0 8 9 8h47l-267 615l-241 -615h116q8 0 9 -8q0 -8 -9 -8h-251q-8 0 -9 8q0 8 9 8h116l250 635 l-371 852h-55q-8 0 -8 8zM217 1503l647 -1487h92l-647 1487h-92z" />
<glyph unicode="Y" horiz-adv-x="925" d="M0 1511q0 8 8 9h371q8 0 8 -9q0 -8 -8 -8h-53l260 -776l196 776h-53q-8 0 -8 8t8 9h125q8 0 8 -9q0 -8 -8 -8h-55l-203 -805q-2 0 -2 -2v-680h57q8 0 8 -8t-8 -8h-370q-8 0 -9 8q0 8 9 8h51v684l-271 803h-53q-8 0 -8 8zM223 1503l269 -803v-684h86v684l-271 803h-84z " />
<glyph unicode="Z" horiz-adv-x="950" d="M0 10l598 1493h-520v-45q0 -8 -8 -8t-9 8v53q0 8 9 9h784q6 0 8 -4q1 -2 1 -4t-1 -3l-596 -1493h580v64q0 8 8 8t8 -8v-72q0 -8 -8 -8h-846q-6 0 -6 4q-2 2 -2 6zM156 16h94l594 1487h-94z" />
<glyph unicode="[" horiz-adv-x="182" d="M6 -133v1671q0 8 8 8h113q8 0 8 -8t-8 -8h-104v-1655h104q8 0 8 -8t-8 -8h-113q-8 0 -8 8z" />
<glyph unicode="\" horiz-adv-x="485" d="M4 1536q-6 10 6 10q8 4 8 -6l418 -1671q0 -10 -6 -10h-2q-6 0 -8 6z" />
<glyph unicode="]" horiz-adv-x="219" d="M4 -133q0 8 8 8h105v1655h-105q-8 0 -8 8t8 8h113q8 0 8 -8v-1671q0 -8 -8 -8h-113q-8 0 -8 8z" />
<glyph unicode="^" horiz-adv-x="886" d="M35 1599q-4 6 4 11l389 139q0 2 6 2q4 0 6 -2l389 -139q8 -4 5 -11q0 -6 -9 -6h-2l-389 140l-389 -140h-4q-6 0 -6 6z" />
<glyph unicode="_" horiz-adv-x="745" d="M0 -23q0 8 8 9h688q8 0 9 -9q0 -8 -9 -8h-688q-8 0 -8 8z" />
<glyph unicode="`" horiz-adv-x="468" d="M25 1745q2 6 10 6l393 -141q6 -4 6 -11q-4 -6 -8 -6h-2l-393 142q-8 4 -6 10z" />
<glyph unicode="a" horiz-adv-x="1021" d="M0 8q0 8 8 8h55l330 1497q0 6 8 7h66q8 0 8 -7l420 -1497h59q8 0 9 -8q0 -8 -9 -8h-370q-8 0 -9 8q0 8 9 8h49l-137 457h-316l-100 -457h53q8 0 8 -8t-8 -8h-125q-8 0 -8 8zM184 489h308l-177 594zM391 1427l397 -1411h89l-416 1487h-53z" />
<glyph unicode="b" horiz-adv-x="911" d="M0 8q0 8 8 8h60v1487h-60q-8 0 -8 8t8 9h371q143 0 246 -99q100 -100 100 -243v-29q0 -59 -18.5 -111.5t-50 -96.5t-77 -76t-98.5 -48q76 -6 142.5 -39t115.5 -86t77 -121.5t28 -146.5v-31q0 -82 -32 -153.5t-85 -125t-125 -84t-153 -30.5h-441q-8 0 -8 8zM223 16h86 v1487h-86v-1487zM326 16h123q78 0 147.5 30t120.5 81t80.5 119.5t29.5 146.5v31q0 78 -29.5 146.5t-80.5 119.5t-121 81t-147 30h-123v-785zM326 817h53q68 0 128 26.5t105 72t71 105.5t26 128v29q0 68 -26 127t-71 103t-105.5 69.5t-127.5 25.5h-53v-686z" />
<glyph unicode="c" horiz-adv-x="931" d="M0 393v737q0 86 33 164t92 140q59 59 137 92t164 33q78 0 150.5 -27t132.5 -78q94 -80 129 -190v155q0 8 8 8t8 -8v-303q0 -8 -8 -8t-8 8v78q-12 74 -49 138.5t-92.5 110.5t-125 72.5t-145.5 26.5q-66 -70 -99.5 -156t-33.5 -180v-887q0 -94 33.5 -180t99.5 -155 q76 0 145.5 26.5t125 72.5t92 109.5t49.5 137.5q2 6 10 6q7 0 7 -5q0 -2 -1 -5q-12 -78 -50 -143.5t-95.5 -112.5t-130 -75t-152.5 -28q-86 0 -164 33t-137 92t-92 137t-33 164zM190 319q0 -88 31 -169.5t88 -149.5q23 -6 46.5 -10t47.5 -6q-61 72 -94 157.5t-33 177.5v887 q0 92 33 178t94 156q-47 0 -96 -16q-55 -66 -86 -148t-31 -170v-887z" />
<glyph unicode="d" horiz-adv-x="935" d="M0 8q0 8 8 8h55v1487h-55q-8 0 -8 8t8 9h418q86 0 161 -33t130 -88.5t88 -130t33 -158.5v-700q0 -84 -33 -159t-88 -130t-130 -88t-161 -33h-418q-8 0 -8 8zM223 16h86v1487h-86v-1487zM326 16h100q82 0 153.5 31t125 84t85 125t31.5 154v700q0 82 -31.5 153.5t-85 125 t-125 84t-153.5 30.5h-100v-1487z" />
<glyph unicode="e" horiz-adv-x="866" d="M0 8q0 8 8 8h55v1487h-55q-8 0 -8 8t8 9h723q8 0 8 -9v-53q0 -8 -8 -8t-8 8v45h-397v-686h229q8 0 8 -8t-8 -8h-229v-785h458v64q1 8 9 8t8 -8v-72q0 -8 -8 -8h-785q-8 0 -8 8zM223 16h86v1487h-86v-1487z" />
<glyph unicode="f" horiz-adv-x="837" d="M0 8q0 8 8 8h51v1487h-51q-8 0 -8 8t8 9h752v-76q0 -8 -8 -8t-9 8v59h-421v-698h208q8 0 9 -8q0 -8 -9 -9h-208v-772h57q8 0 8 -8t-8 -8h-371q-8 0 -8 8zM219 16h86v1487h-86v-1487z" />
<glyph unicode="g" horiz-adv-x="942" d="M0 393v737q0 86 33 164t92 140q59 59 137 92t164 33t164 -33t139 -92q80 -80 111 -187v172q0 8 8 8t8 -8v-303q0 -8 -8 -8t-8 8v14q0 86 -33 161t-89 130.5t-131 88t-161 32.5q-66 -70 -99.5 -156t-33.5 -180v-887q0 -94 33.5 -180t99.5 -155q84 0 158.5 32.5t130 88 t88.5 130t33 158.5v228h-244q-8 0 -8 8t8 8h252q8 0 8 -8v-236q0 -86 -33 -163.5t-92 -137.5q-59 -59 -137 -92t-164 -33t-164 33t-137 92t-92 137t-33 164zM190 319q0 -88 31 -169.5t88 -149.5q23 -6 46.5 -10t47.5 -6q-61 72 -94 157.5t-33 177.5v887q0 92 33 178t94 156 q-47 0 -96 -16q-55 -66 -86 -148t-31 -170v-887z" />
<glyph unicode="h" horiz-adv-x="991" d="M0 8q0 8 8 8h51v1487h-51q-8 0 -8 8t8 9h371q8 0 8 -9q0 -8 -8 -8h-57v-672h262v672h-52q-8 0 -8 8t8 9h371q8 0 8 -9q0 -8 -8 -8h-57v-1487h57q8 0 8 -8t-8 -8h-371q-8 0 -8 8t8 8h52v799h-262v-799h57q8 0 8 -8t-8 -8h-371q-8 0 -8 8zM219 16h86v1487h-86v-1487z M743 16h86v1487h-86v-1487z" />
<glyph unicode="i" horiz-adv-x="466" d="M0 8q0 8 8 8h51v1487h-51q-8 0 -8 8t8 9h371q8 0 8 -9q0 -8 -8 -8h-57v-1487h57q8 0 8 -8t-8 -8h-371q-8 0 -8 8zM219 16h86v1487h-86v-1487z" />
<glyph unicode="j" d="M0 395q0 8 8 8t8 -8q0 -86 33 -160.5t88.5 -130t130 -88t158.5 -32.5h16.5t18.5 2q61 68 95 153.5t34 179.5v1184h-53q-8 0 -9 8q0 8 9 9h374q8 0 9 -9q0 -8 -9 -8h-59v-1110q0 -86 -33 -163.5t-92 -137.5q-59 -59 -137 -92t-164 -33t-164 33t-137 92q-59 61 -92 139 t-33 164zM692 84q66 55 105 136t39 173v1110h-86v-1186q0 -123 -58 -233z" />
<glyph unicode="k" horiz-adv-x="995" d="M0 8q0 8 8 8h55v1487h-55q-8 0 -8 8t8 9h371q8 0 8 -9q0 -8 -8 -8h-53v-745l456 745h-49q-8 0 -8 8t8 9h125q8 0 8 -9q0 -8 -8 -8h-55l-389 -631l450 -856h56q8 0 8 -8t-8 -8h-125q-8 0 -9 8q0 8 9 8h51l-440 840l-80 -129v-711h53q8 0 8 -8t-8 -8h-371q-8 0 -8 8z M223 16h86v1487h-86v-1487z" />
<glyph unicode="l" horiz-adv-x="800" d="M0 8q0 8 8 8h51v1487h-51q-8 0 -8 8t8 9h371q8 0 8 -9q0 -8 -8 -8h-57v-1487h409v90q0 9 8 9t9 -9v-98q0 -8 -9 -8h-731q-8 0 -8 8zM219 16h86v1487h-86v-1487z" />
<glyph unicode="m" horiz-adv-x="1204" d="M0 1511q0 8 8 9h371q8 0 8 -9q0 -8 -8 -8h-47l250 -1044l204 1044h-49q-8 0 -8 8t8 9h371q8 0 8 -9q0 -8 -8 -8h-57v-1487h57q8 0 8 -8t-8 -8h-371q-8 0 -8 8t8 8h51v1411l-278 -1421q0 -8 -8 -8h-66q-8 0 -8 8l-344 1436v-1426h53q8 0 8 -8t-8 -8h-125q-8 0 -8 8t8 8h56 v1487h-60q-8 0 -8 8zM225 1503l310 -1288l38 205l-258 1083h-90zM948 16h86v1487h-86v-1487z" />
<glyph unicode="n" horiz-adv-x="913" d="M0 6q0 8 8 8h55l-2 1489h-53q-8 0 -8 8t8 9h135q4 0 7 -4l622 -1008v991h-55q-8 0 -8 8t8 9h125q8 0 8 -9q0 -8 -8 -8h-54v-1491q0 -8 -8 -8q-10 0 -10 8l-690 1129v-1123h53q8 0 8 -8t-8 -8h-125q-8 0 -8 8zM80 1442l692 -1131v166l-635 1026h-57v-61z" />
<glyph unicode="o" d="M0 391v737q0 86 33 164t92 140q59 59 137 91.5t164 32.5t164 -32.5t137 -91.5q59 -61 92 -139.5t33 -164.5v-737q0 -86 -33 -163.5t-92 -137.5q-59 -59 -137 -92t-164 -33t-164 33t-137 92t-92 137t-33 164zM168 317q-1 -174 108 -307q45 -18 101 -24q-59 70 -91 153.5 t-32 175.5v887q0 92 32.5 178t92.5 156q-55 -6 -105 -25q-106 -137 -106 -307v-887zM270 315q0 -92 33 -178t96 -153q10 -2 27 -2q84 0 158.5 32.5t130 88t88.5 130t33 158.5v737q0 86 -33 161t-88.5 130.5t-130 88t-158.5 32.5q-16 0 -23 -2q-66 -70 -99.5 -156t-33.5 -180 v-887z" />
<glyph unicode="p" horiz-adv-x="868" d="M0 8q0 8 8 8h60v1487h-60q-8 0 -8 8t8 9h441q72 0 136 -26t113 -73q51 -49 78 -112.5t27 -134.5v-33q0 -74 -27.5 -138.5t-76 -112.5t-113 -76t-137.5 -28h-125v-770h53q8 0 8 -8t-8 -8h-369q-8 0 -8 8zM223 16h84v1487h-84v-1487zM324 803h125q70 0 131 26.5t107 72.5 t72.5 107.5t26.5 131.5v33q0 70 -26.5 130t-71.5 104t-107.5 69.5t-131.5 25.5h-125v-700z" />
<glyph unicode="q" horiz-adv-x="931" d="M0 393v737q0 86 33 164t92 140q59 59 137 92t164 33t164 -33t137 -92q59 -61 92 -139t33 -165v-737q0 -86 -33 -163.5t-92 -137.5q-63 -63 -143 -94q8 -14 12 -35q2 -10 4 -19.5t4 -19.5q12 -76 29 -135q10 -33 35.5 -54.5t54.5 -21.5q6 0 6 -4q0 -6 -6 -6h-107 q-35 0 -62.5 23.5t-37.5 58.5q-10 29 -16 63.5t-13 73.5q-4 10 -5 19.5t-3 19.5q0 4 -1 5t-1 5q-12 -2 -25.5 -3t-25.5 -1q-86 0 -164 33t-137 92t-92 137t-33 164zM193 319q0 -88 29.5 -169.5t88.5 -149.5q47 -14 95 -16q-61 72 -94 157.5t-33 177.5v887q0 92 32.5 178 t91.5 156q-45 0 -94 -16q-57 -66 -86.5 -148t-29.5 -170v-887zM295 319q0 -94 33.5 -180t99.5 -155q10 0 21.5 1t21.5 1q-12 23 -34.5 37t-47.5 14q-6 0 -6 4q0 6 6 6h107q44 0 77 -37q57 23 105.5 61t83.5 88t54.5 109.5t19.5 124.5v737q0 86 -33 161t-88.5 130.5t-130 88 t-158.5 32.5q-63 -70 -97 -156t-34 -180v-887z" />
<glyph unicode="r" horiz-adv-x="1036" d="M0 8q0 8 8 8h60v1487h-60q-8 0 -8 8t8 9h441q72 0 136 -26t113 -73q51 -49 78 -112.5t27 -134.5v-33q0 -68 -23.5 -127.5t-64.5 -105.5t-96.5 -77.5t-118.5 -39.5q45 -16 77.5 -55.5t43.5 -86.5q8 -47 22 -117.5t29.5 -144.5t30 -138.5t24.5 -98.5q16 -59 64.5 -96.5 t105.5 -37.5h61q8 0 9 -8q0 -8 -9 -8h-61q-63 0 -115.5 41t-70.5 104q-10 35 -24.5 99.5t-30 138.5t-30 144.5t-22.5 117.5q-10 59 -60 100t-110 41h-110v-770h53q8 0 8 -8t-8 -8h-369q-8 0 -8 8zM223 16h84v1487h-84v-1487zM324 803h125q70 0 131 26.5t107 72.5t72.5 107.5 t26.5 131.5v33q0 70 -26.5 130t-71.5 104t-107.5 69.5t-131.5 25.5h-125v-700z" />
<glyph unicode="s" horiz-adv-x="911" d="M0 152v303q0 8 8 8t8 -8v-80q0 -82 33 -155t87 -126t127 -85t157 -32q70 0 133 23t113.5 63.5t87.5 95t55 120.5q-10 72 -47 127t-93.5 98t-128 76.5t-149.5 64.5q-180 68 -274 166q-115 119 -115 281q-2 8 -2 16v18q0 86 33 163t90 134.5t134 90t163 32.5 q168 0 260 -123q49 -63 70 -151v145q0 8 8 8t8 -8v-303q0 -8 -8 -8t-8 8v14q0 74 -17.5 146t-56.5 128t-101.5 92t-154.5 36q-68 0 -130.5 -21.5t-113.5 -60.5t-88 -92.5t-55 -116.5q16 -61 55 -109.5t94.5 -87t122 -69.5t135.5 -58q72 -27 145.5 -62.5t133.5 -88.5 q121 -106 121 -264v-119q0 -86 -33 -163t-90.5 -134t-134 -90t-162.5 -33q-72 0 -136.5 22.5t-117.5 62.5t-92 96.5t-58 121.5v-112q0 -8 -8 -9q-8 0 -8 9zM25 1208q12 -68 50 -122t94 -96t124.5 -75.5t142.5 -62.5q72 -27 145.5 -62.5t133.5 -87.5q80 -70 106 -161 q-8 68 -38.5 121t-81 96t-118 77.5t-149.5 65.5q-63 25 -132 55.5t-128 71.5q-114 80 -149 180z" />
<glyph unicode="t" horiz-adv-x="976" d="M0 1446v67q0 8 8 9h883q8 0 8 -9v-67q0 -8 -8 -8t-8 8v59h-305v-1489h57q8 0 8 -8t-8 -8h-307h-4h-5h-55q-8 0 -8 8t8 8h51v1489h-299v-59q0 -8 -8 -8t-8 8zM475 16h86v1489h-86v-1489z" />
<glyph unicode="u" horiz-adv-x="1036" d="M0 1511q0 8 8 9h371q8 0 8 -9q0 -8 -8 -8h-49v-1186q0 -92 32.5 -178t96.5 -153q6 -2 13 -2h13q84 0 159 32.5t130 88t88 130t33 158.5v1110h-53q-8 0 -8 8t8 9h125q8 0 8 -9q0 -8 -8 -8h-56v-1110q0 -86 -32.5 -163.5t-92.5 -137.5q-59 -59 -137 -92t-164 -33t-163.5 33 t-137.5 92q-59 59 -92 137t-33 164v1110h-51q-8 0 -8 8zM227 315q0 -168 103 -301q45 -20 104 -26q-59 70 -90 153.5t-31 175.5v1186h-86v-1188z" />
<glyph unicode="v" horiz-adv-x="1036" d="M0 1511q0 8 8 9h371q8 0 8 -9q0 -8 -8 -8h-51l321 -1081l256 1081h-53q-8 0 -8 8t8 9h125q8 0 8 -9q0 -8 -8 -8h-55l-355 -1497q0 -8 -8 -8h-65q-2 0 -9 6l-419 1499h-58q-8 0 -8 8zM219 1503l379 -1300l43 186l-330 1114h-92z" />
<glyph unicode="w" horiz-adv-x="1327" d="M0 1511q0 8 8 9h371q8 0 8 -9q0 -8 -8 -8h-51l250 -1044l77 397l-155 647h-58q-8 0 -8 8t8 9h371q8 0 8 -9q0 -8 -8 -8h-51l250 -1044l205 1044h-54q-8 0 -8 8t8 9h125q8 0 8 -9q0 -8 -8 -8h-55l-293 -1497q0 -8 -8 -8h-66q-4 0 -8 8l-194 811l-158 -811q0 -8 -8 -8h-66 q-4 0 -8 8l-358 1497h-58q-8 0 -8 8zM223 1503l307 -1284l39 201l-258 1083h-88zM657 1503l308 -1286l41 203l-261 1083h-88z" />
<glyph unicode="x" horiz-adv-x="1116" d="M0 1511q0 8 8 9h371q8 0 8 -9q0 -8 -8 -8h-53l247 -565l224 565h-52q-8 0 -8 8t8 9h125q8 0 9 -9q0 -8 -9 -8h-55l-233 -585l393 -902h59q8 0 8 -8t-8 -8h-370q-8 0 -9 8q0 8 9 8h47l-267 615l-241 -615h116q8 0 9 -8q0 -8 -9 -8h-251q-8 0 -9 8q0 8 9 8h116l250 635 l-371 852h-55q-8 0 -8 8zM217 1503l647 -1487h92l-647 1487h-92z" />
<glyph unicode="y" horiz-adv-x="899" d="M0 1511q0 8 8 9h371q8 0 8 -9q0 -8 -8 -8h-53l260 -776l196 776h-53q-8 0 -8 8t8 9h125q8 0 8 -9q0 -8 -8 -8h-55l-203 -805q-2 0 -2 -2v-680h57q8 0 8 -8t-8 -8h-370q-8 0 -9 8q0 8 9 8h51v684l-271 803h-53q-8 0 -8 8zM223 1503l269 -803v-684h86v684l-271 803h-84z " />
<glyph unicode="z" horiz-adv-x="946" d="M0 10l598 1493h-520v-45q0 -8 -8 -8t-9 8v53q0 8 9 9h784q6 0 8 -4q1 -2 1 -4t-1 -3l-596 -1493h580v64q0 8 8 8t8 -8v-72q0 -8 -8 -8h-846q-6 0 -6 4q-2 2 -2 6zM156 16h94l594 1487h-94z" />
<glyph unicode="{" horiz-adv-x="182" d="M-8 711q0 8 8 8q20 0 33 14q14 12 14 33v717q0 27 18.5 45t45.5 18q8 0 8 -8t-8 -8q-20 0 -34 -13.5t-14 -33.5v-717q0 -39 -32 -55q6 -2 14 -11q18 -18 18 -45v-733q0 -20 13.5 -33.5t34.5 -13.5q8 0 8 -8t-8 -8q-27 0 -45.5 18.5t-18.5 44.5v733q0 20 -13.5 33.5 t-33.5 13.5q-8 0 -8 9z" />
<glyph unicode="|" horiz-adv-x="157" d="M37 0v1520q0 8 8 8t8 -8v-1520q0 -8 -8 -8t-8 8z" />
<glyph unicode="}" horiz-adv-x="190" d="M-8 -133q0 8 8 8q20 0 33.5 13.5t13.5 33.5v733q0 39 33 56q-6 2 -14 10q-18 18 -19 45v717q0 20 -13.5 33.5t-33.5 13.5q-8 0 -8 8t8 8q27 0 45 -18.5t18 -44.5v-717q0 -20 13.5 -33.5t34.5 -13.5q8 0 8 -8t-8 -9q-18 0 -33 -14q-14 -12 -15 -33v-733q0 -27 -18 -45 t-45 -18q-8 0 -8 8z" />
<glyph unicode="~" horiz-adv-x="460" d="M8 696l23 105q8 35 37.5 58.5t64.5 23.5q6 0 28.5 -1t51.5 -1h56.5h43.5q33 4 58.5 24t31.5 49q4 4 7 4q10 0 4 -6l-21 -104q-8 -33 -36.5 -55.5t-65.5 -26.5h-44h-56.5h-51h-28.5q-33 2 -58.5 -19.5t-34.5 -52.5q0 -8 -6 -4q-4 0 -4 6z" />
<glyph unicode="&#xa1;" horiz-adv-x="210" d="M6 997q0 35 23.5 58.5t58.5 23.5t59.5 -23.5t24.5 -58.5t-24.5 -59.5t-59.5 -24.5t-58.5 25t-23.5 59zM23 997q0 -29 19 -48t46 -19v133q-27 0 -46 -18.5t-19 -47.5zM80 -446v1183q0 8 8 8t8 -8v-1183q0 -9 -8 -9t-8 9z" />
<glyph unicode="&#xa2;" horiz-adv-x="931" d="M0 393v307q0 86 33 164t92 140q78 78 174 104q2 2 4 2q55 14 117 18v107q0 8 8 8t8 -8v-107q152 -4 273 -104q94 -80 129 -190v20v135q0 8 8 8t8 -8v-303q0 -8 -8 -8t-8 8v78q-10 74 -47 136.5t-90.5 108.5t-122 73.5t-142.5 29.5v-1128q74 2 141.5 28.5t122 72.5 t90 108.5t48.5 136.5q2 6 10 6q10 0 6 -10q-12 -76 -49 -140.5t-93.5 -112.5t-127 -76t-148.5 -30v-110q0 -8 -8 -9q-8 0 -8 9v110q-61 0 -117 19h-2q-100 31 -176 106q-59 59 -92 137t-33 164zM190 319q0 -88 31 -169.5t88 -149.5q23 -6 46.5 -10t47.5 -6q-61 72 -94 157.5 t-33 177.5v457q0 92 33 178t94 156q-47 0 -96 -16q-55 -66 -86 -148t-31 -170v-457zM293 319q0 -92 32.5 -176t94.5 -151v1114q-61 -70 -94 -154t-33 -176v-457z" />
<glyph unicode="&#xa3;" horiz-adv-x="1093" d="M0 176q0 80 55.5 136.5t132.5 60.5v420h-180q-8 0 -8 8t8 8h180v278q0 86 33 164t92 140q59 59 137 92t164 33q66 0 126.5 -19.5t113.5 -54.5q6 -6 2 -10q-8 -8 -12 -2q-104 70 -230 69q-63 -70 -97 -156t-34 -180v-354h365q8 0 8 -8t-8 -8h-365v-523l217 -223 q57 -61 142 -61q39 0 74.5 15t61.5 41t41 60.5t15 73.5t-15 75t-41 61.5t-61.5 41t-74.5 15.5q-8 0 -8 8t8 8q43 0 81 -16.5t66.5 -45t45 -66.5t16.5 -81t-16.5 -81t-45 -65.5t-66.5 -44t-81 -16.5t-84 17.5t-70 48.5l-205 213v-260q0 -8 -8 -8h-276h-2q-82 0 -139.5 57 t-57.5 139zM16 176q0 -37 13.5 -68.5t37 -56t54.5 -39t67 -16.5v360q-37 -2 -67.5 -16t-54 -39t-37 -56.5t-13.5 -68.5zM381 -4h86v1167q0 92 32.5 178t92.5 156q-45 0 -94 -16h-2q-55 -68 -85 -149t-30 -169v-1167z" />
<glyph unicode="&#xa4;" horiz-adv-x="208" d="M0 78q0 35 23.5 58.5t58.5 23.5t59.5 -23.5t24.5 -58.5t-24.5 -59.5t-59.5 -24.5t-58.5 24.5t-23.5 59.5zM82 10q29 0 48.5 19.5t19.5 48.5t-19.5 47t-48.5 18v-133z" />
<glyph unicode="&#xa5;" horiz-adv-x="925" d="M0 1520q0 8 8 8h371q8 0 8 -8t-8 -9h-53l260 -782l196 782h-53q-8 0 -8 9q0 8 8 8h125q8 0 8 -8t-8 -9h-55l-193 -766h219q8 0 9 -8q0 -8 -9 -8h-223l-6 -31q-2 0 -2 -2v-159h231q8 0 9 -9q0 -8 -9 -8h-231v-508h57q8 0 8 -8t-8 -8h-370q-8 0 -9 8q0 8 9 8h51v508h-246 q-8 0 -8 8t8 9h246v163l-10 29h-236q-8 0 -8 8t8 8h231l-256 766h-53q-8 0 -8 9zM223 1511l269 -811v-688h86v688l-271 811h-84z" />
<glyph unicode="&#xa6;" horiz-adv-x="147" d="M12 0v614q0 8 8 9q8 0 9 -9v-614q-1 -8 -9 -8t-8 8zM12 784v615q0 8 8 8t9 -8v-615q-1 -8 -9 -8t-8 8z" />
<glyph unicode="&#xa7;" horiz-adv-x="512" d="M68 582q-4 6 0 12l151 151l-151 154q-6 4 0 10t12 0l151 -151l152 151q6 6 12 0q10 -6 0 -10l-151 -154l151 -151q6 -6 0 -12q-6 -4 -12 0l-152 153l-151 -153q-6 -4 -12 0z" />
<glyph unicode="&#xa8;" horiz-adv-x="1705" />
<glyph unicode="&#xa9;" horiz-adv-x="204" d="M0 78q0 35 23.5 58.5t58.5 23.5t59.5 -23.5t24.5 -58.5t-24.5 -59.5t-59.5 -24.5t-58.5 24.5t-23.5 59.5zM82 10q29 0 48.5 19.5t19.5 48.5t-19.5 47t-48.5 18v-133z" />
<glyph unicode="&#xaa;" horiz-adv-x="208" d="M0 78q0 35 23.5 58.5t58.5 23.5t59.5 -23.5t24.5 -58.5t-24.5 -59.5t-59.5 -24.5t-58.5 24.5t-23.5 59.5zM82 10q29 0 48.5 19.5t19.5 48.5t-19.5 47t-48.5 18v-133z" />
<glyph unicode="&#xab;" horiz-adv-x="417" d="M2 748q-4 6 0 10l162 207q6 6 12 0t0 -11l-158 -202l158 -209q4 -4 0 -13q-2 0 -3 -1t-3 -1t-6 4zM147 748q-4 6 0 10l162 207q6 6 13 0q6 -6 0 -11l-158 -202l158 -209q4 -6 -3 -13q-2 -2 -4 -2t-6 4z" />
<glyph unicode="&#xac;" horiz-adv-x="219" d="M0 78q0 35 23.5 58.5t58.5 23.5t59.5 -23.5t24.5 -58.5t-24.5 -59.5t-59.5 -24.5t-58.5 24.5t-23.5 59.5zM82 10q29 0 48.5 19.5t19.5 48.5t-19.5 47t-48.5 18v-133z" />
<glyph unicode="&#xad;" horiz-adv-x="536" d="M0 745q0 8 8 9h447q8 0 8 -9q0 -8 -8 -8h-447q-8 0 -8 8zM0 745q0 8 8 9h447q8 0 8 -9q0 -8 -8 -8h-447q-8 0 -8 8z" />
<glyph unicode="&#xae;" horiz-adv-x="204" d="M0 78q0 35 23.5 58.5t58.5 23.5t59.5 -23.5t24.5 -58.5t-24.5 -59.5t-59.5 -24.5t-58.5 24.5t-23.5 59.5zM82 10q29 0 48.5 19.5t19.5 48.5t-19.5 47t-48.5 18v-133z" />
<glyph unicode="&#xb0;" horiz-adv-x="215" d="M0 745q0 35 23.5 59.5t58.5 24.5t59.5 -24.5t24.5 -59.5t-24.5 -58t-59.5 -23t-58.5 23.5t-23.5 57.5zM16 745q0 -29 19.5 -47t46.5 -18q29 0 48.5 18.5t19.5 46.5q0 29 -19.5 48.5t-48.5 19.5q-27 0 -46.5 -19.5t-19.5 -48.5z" />
<glyph unicode="&#xb1;" horiz-adv-x="573" d="M0 440q0 8 8 9h447q8 0 8 -9q0 -8 -8 -8h-447q-8 0 -8 8zM0 829q0 8 8 9h215v215q0 8 8 8t9 -8v-215h215q8 0 8 -9q0 -8 -8 -8h-215v-215q0 -8 -9 -8q-8 0 -8 8v215h-215q-8 0 -8 8z" />
<glyph unicode="&#xb2;" horiz-adv-x="829" d="M0 631l341 848q-23 14 -48.5 21.5t-55.5 7.5h-19q-41 0 -77 -15.5t-63 -42.5t-43 -63.5t-16 -77.5q0 -4 -4 -4q-5 0 -6 4q0 44 16.5 82t45 66t66.5 44.5t81 16.5h19q37 0 72.5 -12.5t63.5 -36.5q27 -24 45 -57t25 -67l-284 -711h270v53q0 5 5 6q4 0 4 -6v-57q0 -5 -4 -5 h-429q-4 0 -4 2q-1 2 -1 4zM93 634h55l285 712q-5 37 -27 69z" />
<glyph unicode="&#xb3;" horiz-adv-x="886" d="M0 790q-1 3 3 5q4 3 6 -2q12 -35 34.5 -63.5t51.5 -49t63 -31.5t72 -11q38 40 57 89t19 103v109q0 54 -19 103.5t-57 89.5q-5 0 -5 5t5 5q36 0 68.5 14t56.5 38t38.5 56.5t14.5 68.5v17q0 36 -14.5 68.5t-38.5 56.5t-56.5 38.5t-68.5 14.5h-18q-36 0 -68.5 -14.5 t-56.5 -38.5t-38.5 -55.5t-14.5 -68.5q0 -5 -5 -5q-4 0 -4 5q0 38 14 71.5t41 60.5q27 26 60.5 40t71.5 14h18q39 0 72.5 -14.5t59.5 -40t40.5 -59.5t14.5 -73v-17q0 -77 -55 -133q-36 -36 -88 -49q26 -5 50.5 -15t44.5 -24q48 -33 77.5 -86t29.5 -117v-22q0 -49 -19 -94 t-53 -79t-77.5 -52.5t-92.5 -19.5h-3h-3q-38 0 -73.5 12t-65.5 34q-61 44 -89 116zM382 693q39 33 62 79.5t23 100.5v22q0 56 -23 102.5t-61 77.5q34 -62 34 -136v-109q0 -74 -35 -137z" />
<glyph unicode="&#xb4;" horiz-adv-x="489" d="M25 1599q-2 6 6 11l393 141q6 0 10 -6q0 -8 -6 -10l-393 -142h-2q-6 0 -8 6z" />
<glyph unicode="&#xb5;" horiz-adv-x="231" d="M0 78q0 35 23.5 58.5t58.5 23.5t59.5 -23.5t24.5 -58.5t-24.5 -59.5t-59.5 -24.5t-58.5 24.5t-23.5 59.5zM82 10q29 0 48.5 19.5t19.5 48.5t-19.5 47t-48.5 18v-133z" />
<glyph unicode="&#xb6;" horiz-adv-x="221" d="M0 78q0 35 23.5 58.5t58.5 23.5t59.5 -23.5t24.5 -58.5t-24.5 -59.5t-59.5 -24.5t-58.5 24.5t-23.5 59.5zM82 10q29 0 48.5 19.5t19.5 48.5t-19.5 47t-48.5 18v-133z" />
<glyph unicode="&#xb7;" horiz-adv-x="235" d="M0 449q0 35 23.5 58t58.5 23t59.5 -23.5t24.5 -57.5q0 -35 -24.5 -59.5t-59.5 -24.5t-58.5 24.5t-23.5 59.5zM82 381q29 0 48.5 19.5t19.5 48.5t-19.5 47t-48.5 18v-133z" />
<glyph unicode="&#xb8;" horiz-adv-x="167" d="M0 -33h16v-96q55 -4 93 -44t38 -95q0 -59 -39.5 -99.5t-99.5 -40.5q-8 0 -8 9q0 8 8 8q53 0 88 36t35 87t-35 87t-88 36q-8 0 -8 8v104z" />
<glyph unicode="&#xb9;" horiz-adv-x="516" d="M1 1359q-3 3 1 7l213 159q1 1 5 1q2 -2 2 -5v-885h34q5 0 5 -4q0 -5 -5 -5h-219q-5 0 -5 5q0 4 5 4h31v768l-61 -46q-3 -3 -6 1zM162 636h50v875l-50 -37v-838z" />
<glyph unicode="&#xba;" d="M0 391v737q0 86 33 164t92 140q59 59 137 91.5t164 32.5t164 -32.5t137 -91.5q59 -61 92 -139.5t33 -164.5v-737q0 -86 -33 -163.5t-92 -137.5q-59 -59 -137 -92t-164 -33t-164 33t-137 92t-92 137t-33 164zM168 317q-1 -174 108 -307q45 -18 101 -24q-59 70 -91 153.5 t-32 175.5v887q0 92 32.5 178t92.5 156q-55 -6 -105 -25q-106 -137 -106 -307v-887zM270 315q0 -92 33 -178t96 -153q10 -2 27 -2q84 0 158.5 32.5t130 88t88.5 130t33 158.5v737q0 86 -33 161t-88.5 130.5t-130 88t-158.5 32.5q-16 0 -23 -2q-66 -70 -99.5 -156t-33.5 -180 v-887z" />
<glyph unicode="&#xbb;" horiz-adv-x="372" d="M2 543l158 209l-158 202q-6 4 0 11q6 6 12 0l162 -207q4 -4 0 -10l-162 -216q-4 -4 -6 -4l-4 2q-8 6 -2 13zM147 530q-4 8 0 13l158 209l-158 202q-6 4 0 11q6 6 13 0l162 -207q4 -4 0 -10l-162 -216q-4 -4 -6 -4t-3 1t-4 1z" />
<glyph unicode="&#xbc;" horiz-adv-x="864" d="M1 1360q-3 2 1 7l213 158q1 1 5 1q2 -2 2 -5v-881h34q5 0 5 -4q0 -5 -5 -5h-219q-5 0 -5 5q0 4 5 4h31v765l-61 -46q-3 -4 -6 1zM125 -131l416 1671q4 8 10 6q6 0 6 -10l-418 -1671q0 -6 -6 -6h-2q-12 0 -6 10zM162 640h50v871l-50 -37v-834zM342 362q0 3 1 5l359 536 q1 2 5 2q4 -2 4 -5v-531h73q5 0 5 -5q0 -4 -5 -4h-73v-341h33q5 0 5 -4q0 -5 -5 -5h-217q-5 0 -5 5q0 4 5 4h30v341h-210q-3 0 -5 2zM355 369h202v300zM650 19h51v866l-51 -76v-790z" />
<glyph unicode="&#xbd;" horiz-adv-x="925" d="M1 1359q-3 3 1 7l213 159q1 1 5 1q2 -2 2 -5v-885h34q5 0 5 -4q0 -5 -5 -5h-219q-5 0 -5 5q0 4 5 4h31v768l-61 -46q-3 -3 -6 1zM96 -131l416 1671q4 8 10 6q6 0 6 -10l-418 -1671q0 -6 -6 -6h-2q-12 0 -6 10zM162 636h50v875l-50 -37v-838zM375 22l341 850 q-23 14 -48.5 21.5t-55.5 7.5h-19q-41 0 -77 -15.5t-63 -42.5t-43 -63.5t-16 -77.5q0 -5 -4 -5q-5 0 -6 5q0 43 16.5 81.5t45 66.5t66.5 44.5t81 16.5h19q37 0 72.5 -12.5t63.5 -36.5q27 -25 45 -57.5t25 -67.5l-284 -712h270v54q0 4 5 5q4 0 4 -5v-58q0 -5 -4 -5h-429 q-4 0 -4 2q-1 2 -1 4zM468 25h55l285 713q-5 38 -27 70z" />
<glyph unicode="&#xbe;" horiz-adv-x="993" d="M0 786q-1 4 3 6t6 -2q12 -36 34.5 -64.5t51.5 -49t63.5 -31.5t72.5 -11q38 40 57 89.5t19 103.5v109q0 55 -19 104.5t-57 90.5q-5 0 -5 4q0 5 5 5q36 0 68.5 14t57 38.5t39 57t14.5 68.5v17q0 36 -14.5 69t-39 57t-56.5 38t-69 14h-18q-36 0 -68.5 -14t-57 -38t-39 -56 t-14.5 -69q0 -4 -5 -4q-4 0 -4 4q0 38 14 71.5t41 61.5q27 26 61 40t72 14h18q39 0 72.5 -14.5t59.5 -40.5t41 -60t15 -73v-17q0 -78 -56 -133q-36 -37 -87 -50q26 -4 50 -14.5t44 -24.5q49 -33 78.5 -86t29.5 -117v-23q0 -50 -19 -94.5t-53 -79.5q-35 -34 -78.5 -52.5 t-92.5 -19.5h-3h-3q-38 0 -73.5 12t-66.5 34q-61 44 -89 116zM266 -131l416 1671q4 8 10 6q6 0 6 -10l-418 -1671q0 -6 -6 -6h-2q-12 0 -6 10zM384 689q39 33 62 80t23 101v23q0 55 -23.5 102t-60.5 78q34 -63 34 -137v-109q0 -74 -35 -138zM467 365q0 4 1 5l362 541 q1 2 5 2q4 -2 4 -4v-537h74q5 0 5 -4q0 -5 -5 -5h-74v-344h34q4 0 4 -4q0 -5 -4 -5h-220q-4 0 -4 5q0 4 4 4h31v344h-212q-3 0 -5 2zM481 372h203v303zM778 19h51v874l-51 -77v-797z" />
<glyph unicode="&#xbf;" horiz-adv-x="862" d="M0 -68q0 80 29.5 151t82 123t121 82.5t148.5 33.5v415q0 8 8 8t8 -8v-424q0 -8 -8 -8q-78 0 -145.5 -28.5t-118.5 -80t-80 -119t-29 -145.5t29 -144.5t80 -117.5t118.5 -79.5t145.5 -28.5q76 0 143.5 28.5t118.5 79.5t80 118t29 144q0 9 8 9t8 -9q0 -80 -30.5 -150.5 t-83 -122.5t-123 -83t-150.5 -31t-151.5 31t-124 83t-83 123t-30.5 150zM305 995q0 35 24.5 59.5t59.5 24.5t58.5 -24.5t23.5 -59.5t-23.5 -58.5t-58.5 -23.5t-59.5 24t-24.5 58zM322 995q0 -29 19 -47t48 -18v133q-29 0 -48 -19.5t-19 -48.5z" />
<glyph unicode="&#xc0;" horiz-adv-x="1013" d="M0 8q0 -8 8 -8h125q8 0 8 8t-8 8h-53l100 457h316l137 -457h-49q-8 0 -9 -8q0 -8 9 -8h370q8 0 9 8q0 8 -9 8h-59l-420 1497q0 6 -8 7h-66q-8 0 -8 -7l-330 -1497h-55q-8 0 -8 -8zM25 1745q2 6 10 6l393 -141q6 -4 6 -11q-4 -6 -8 -6h-2l-393 142q-8 4 -6 10zM184 489 l131 594l177 -594h-308zM391 1427l17 76h53l416 -1487h-89z" />
<glyph unicode="&#xc1;" horiz-adv-x="1013" d="M0 8q0 8 8 8h55l330 1497q0 6 8 7h66q8 0 8 -7l420 -1497h59q8 0 9 -8q0 -8 -9 -8h-370q-8 0 -9 8q0 8 9 8h49l-137 457h-316l-100 -457h53q8 0 8 -8t-8 -8h-125q-8 0 -8 8zM184 489h308l-177 594zM391 1427l397 -1411h89l-416 1487h-53zM435 1611q-2 6 6 11l393 141 q6 0 10 -6q0 -8 -6 -10l-393 -142h-2q-6 0 -8 6z" />
<glyph unicode="&#xc2;" horiz-adv-x="1013" d="M0 8q0 -8 8 -8h125q8 0 8 8t-8 8h-53l100 457h316l137 -457h-49q-8 0 -9 -8q0 -8 9 -8h370q8 0 9 8q0 8 -9 8h-59l-420 1497q0 6 -8 7h-66q-8 0 -8 -7l-330 -1497h-55q-8 0 -8 -8zM184 489l131 594l177 -594h-308zM287 1604q-6 6 0 12l147 147q4 4 10 0l150 -147 q2 -6 0 -12q-2 -2 -6 -2t-6 2l-142 141l-143 -141q-6 -6 -10 0zM391 1427l17 76h53l416 -1487h-89z" />
<glyph unicode="&#xc3;" horiz-adv-x="1013" d="M0 8q0 8 8 8h55l330 1497q0 6 8 7h66q8 0 8 -7l420 -1497h59q8 0 9 -8q0 -8 -9 -8h-370q-8 0 -9 8q0 8 9 8h49l-137 457h-316l-100 -457h53q8 0 8 -8t-8 -8h-125q-8 0 -8 8zM184 489h308l-177 594zM258 1618l23 104q8 35 38 58.5t64 23.5q6 0 29 -1t51.5 -1h56h44.5 q33 4 58.5 24.5t31.5 49.5q4 4 6 4q10 0 4 -6l-20 -105q-8 -33 -37 -55t-66 -27h-44h-56.5h-51h-28.5q-33 2 -58.5 -19t-33.5 -52q0 -8 -6 -4q-4 0 -5 6zM391 1427l397 -1411h89l-416 1487h-53z" />
<glyph unicode="&#xc4;" horiz-adv-x="1013" d="M0 8q0 -8 8 -8h125q8 0 8 8t-8 8h-53l100 457h316l137 -457h-49q-8 0 -9 -8q0 -8 9 -8h370q8 0 9 8q0 8 -9 8h-59l-420 1497q0 6 -8 7h-66q-8 0 -8 -7l-330 -1497h-55q-8 0 -8 -8zM184 489l131 594l177 -594h-308zM283 1718q0 18 14 31.5t33 13.5q18 0 31.5 -13.5 t13.5 -31.5q0 -20 -13.5 -33.5t-31.5 -13.5t-32.5 13.5t-14.5 33.5zM391 1427l17 76h53l416 -1487h-89zM492 1718q0 18 13 31.5t34 13.5q18 0 31.5 -13.5t13.5 -31.5q0 -20 -13.5 -33.5t-31.5 -13.5q-20 0 -33.5 13.5t-13.5 33.5z" />
<glyph unicode="&#xc5;" horiz-adv-x="1013" d="M0 8q0 8 8 8h55l330 1497q0 6 8 7h66q8 0 8 -7l420 -1497h59q8 0 9 -8q0 -8 -9 -8h-370q-8 0 -9 8q0 8 9 8h49l-137 457h-316l-100 -457h53q8 0 8 -8t-8 -8h-125q-8 0 -8 8zM184 489h308l-177 594zM348 1706q0 35 23.5 58.5t58.5 23.5t59.5 -23.5t24.5 -58.5t-24.5 -59.5 t-59.5 -24.5t-58.5 24.5t-23.5 59.5zM391 1427l397 -1411h89l-416 1487h-53zM430 1639q29 0 48.5 19t19.5 48t-19.5 47.5t-48.5 18.5v-133z" />
<glyph unicode="&#xc6;" horiz-adv-x="417" d="M55 1604q-6 6 0 12l148 147q4 4 10 0l149 -147q2 -6 0 -12q-2 -2 -6 -2t-6 2l-141 141l-143 -141q-6 -6 -11 0z" />
<glyph unicode="&#xc7;" horiz-adv-x="956" d="M0 393v737q0 86 33 164t92 140q59 59 137 92t164 33q78 0 150.5 -27t132.5 -78q94 -80 129 -190v155q0 8 8 8t8 -8v-303q0 -8 -8 -8t-8 8v78q-12 74 -49 138.5t-92.5 110.5t-125 72.5t-145.5 26.5q-66 -70 -99.5 -156t-33.5 -180v-887q0 -94 33.5 -180t99.5 -155 q76 0 145.5 26.5t125 72.5t92 109.5t49.5 137.5q2 6 10 6q10 0 6 -10q-12 -76 -50 -141.5t-94.5 -113.5t-128 -76t-151.5 -28v-96q55 -4 94 -44t39 -95q0 -59 -41 -99.5t-98 -40.5q-8 0 -8 9q0 8 8 8q51 0 87 36t36 87t-36 87t-87 36h-2q-8 0 -8 8v104q-82 4 -156 35 t-133 90t-92 137t-33 164zM190 319q0 -88 31 -169.5t88 -149.5q23 -6 46.5 -10t47.5 -6q-61 72 -94 157.5t-33 177.5v887q0 92 33 178t94 156q-47 0 -96 -16q-55 -66 -86 -148t-31 -170v-887z" />
<glyph unicode="&#xc8;" horiz-adv-x="878" d="M0 8q0 -8 8 -8h785q8 0 8 8v72q0 8 -8 8t-9 -8v-64h-458v785h229q8 0 8 8t-8 8h-229v686h397v-45q0 -8 8 -8t8 8v53q0 8 -8 9h-723q-8 0 -8 -9q0 -8 8 -8h55v-1487h-55q-8 0 -8 -8zM25 1745q2 6 10 6l393 -141q6 -4 6 -11q-4 -6 -8 -6h-2l-393 142q-8 4 -6 10zM223 16 v1487h86v-1487h-86z" />
<glyph unicode="&#xc9;" horiz-adv-x="878" d="M0 8q0 8 8 8h55v1487h-55q-8 0 -8 8t8 9h723q8 0 8 -9v-53q0 -8 -8 -8t-8 8v45h-397v-686h229q8 0 8 -8t-8 -8h-229v-785h458v64q1 8 9 8t8 -8v-72q0 -8 -8 -8h-785q-8 0 -8 8zM223 16h86v1487h-86v-1487zM363 1611q-2 6 6 11l393 141q6 0 10 -6q0 -8 -6 -10l-393 -142 h-2q-6 0 -8 6z" />
<glyph unicode="&#xca;" horiz-adv-x="878" d="M0 8q0 -8 8 -8h785q8 0 8 8v72q0 8 -8 8t-9 -8v-64h-458v785h229q8 0 8 8t-8 8h-229v686h397v-45q0 -8 8 -8t8 8v53q0 8 -8 9h-723q-8 0 -8 -9q0 -8 8 -8h55v-1487h-55q-8 0 -8 -8zM223 16v1487h86v-1487h-86zM240 1604q-6 6 0 12l147 147q4 4 10 0l150 -147q2 -6 0 -12 q-2 -2 -6 -2t-6 2l-142 141l-143 -141q-6 -6 -10 0z" />
<glyph unicode="&#xcb;" horiz-adv-x="878" d="M0 8q0 -8 8 -8h785q8 0 8 8v72q0 8 -8 8t-9 -8v-64h-458v785h229q8 0 8 8t-8 8h-229v686h397v-45q0 -8 8 -8t8 8v53q0 8 -8 9h-723q-8 0 -8 -9q0 -8 8 -8h55v-1487h-55q-8 0 -8 -8zM223 16v1487h86v-1487h-86zM283 1718q0 18 14 31.5t33 13.5q18 0 31.5 -13.5t13.5 -31.5 q0 -20 -13.5 -33.5t-31.5 -13.5t-32.5 13.5t-14.5 33.5zM492 1718q0 18 13 31.5t34 13.5q18 0 31.5 -13.5t13.5 -31.5q0 -20 -13.5 -33.5t-31.5 -13.5q-20 0 -33.5 13.5t-13.5 33.5z" />
<glyph unicode="&#xcc;" horiz-adv-x="655" d="M25 1745q2 6 10 6l393 -141q6 -4 6 -11q-4 -6 -8 -6h-2l-393 142q-8 4 -6 10zM37 2173q2 6 10 6l393 -141q6 -4 6 -10q-4 -6 -8 -7h-2l-393 142q-8 4 -6 10zM221 8q0 -8 8 -8h371q8 0 8 8t-8 8h-57v1487h57q8 0 8 8t-8 9h-371q-8 0 -8 -9q0 -8 8 -8h52v-1487h-52 q-8 0 -8 -8zM440 16v1487h86v-1487h-86z" />
<glyph unicode="&#xcd;" horiz-adv-x="636" d="M0 8q0 8 8 8h51v1487h-51q-8 0 -8 8t8 9h371q8 0 8 -9q0 -8 -8 -8h-57v-1487h57q8 0 8 -8t-8 -8h-371q-8 0 -8 8zM168 1611q-2 6 6 11l393 141q6 0 10 -6q0 -8 -6 -10l-393 -142h-2q-6 0 -8 6zM219 16h86v1487h-86v-1487z" />
<glyph unicode="&#xce;" horiz-adv-x="434" d="M0 8q0 -8 8 -8h371q8 0 8 8t-8 8h-57v1487h57q8 0 8 8t-8 9h-371q-8 0 -8 -9q0 -8 8 -8h51v-1487h-51q-8 0 -8 -8zM18 1604q-6 6 0 12l148 147q4 4 10 0l150 -147q2 -6 0 -12q-3 -2 -7 -2t-6 2l-141 141l-143 -141q-6 -6 -11 0zM219 16v1487h86v-1487h-86z" />
<glyph unicode="&#xcf;" horiz-adv-x="481" d="M0 8q0 -8 8 -8h371q8 0 8 8t-8 8h-57v1487h57q8 0 8 8t-8 9h-371q-8 0 -8 -9q0 -8 8 -8h51v-1487h-51q-8 0 -8 -8zM37 1718q0 18 14.5 31.5t32.5 13.5t31.5 -13.5t13.5 -31.5q0 -20 -13.5 -33.5t-31.5 -13.5t-32.5 13.5t-14.5 33.5zM219 16v1487h86v-1487h-86zM246 1718 q0 18 13 31.5t34 13.5q18 0 31.5 -13.5t13.5 -31.5q0 -20 -13.5 -33.5t-31.5 -13.5q-20 0 -33.5 13.5t-13.5 33.5z" />
<glyph unicode="&#xd0;" horiz-adv-x="931" d="M0 8q0 8 8 8h55v1487h-55q-8 0 -8 8t8 9h418q86 0 161 -33t130 -88.5t88 -130t33 -158.5v-700q0 -84 -33 -159t-88 -130t-130 -88t-161 -33h-418q-8 0 -8 8zM0 745q0 8 8 9h447q8 0 8 -9q0 -8 -8 -8h-447q-8 0 -8 8zM223 16h86v1487h-86v-1487zM326 16h100q82 0 153.5 31 t125 84t85 125t31.5 154v700q0 82 -31.5 153.5t-85 125t-125 84t-153.5 30.5h-100v-1487z" />
<glyph unicode="&#xd1;" horiz-adv-x="921" d="M0 6q0 8 8 8h55l-2 1489h-53q-8 0 -8 8t8 9h135q4 0 7 -4l622 -1008v991h-55q-8 0 -8 8t8 9h125q8 0 8 -9q0 -8 -8 -8h-54v-1491q0 -8 -8 -8q-10 0 -10 8l-690 1129v-1123h53q8 0 8 -8t-8 -8h-125q-8 0 -8 8zM80 1442l692 -1131v166l-635 1026h-57v-61zM253 1616l23 104 q8 35 38 58.5t64 23.5q6 0 29 -1t51.5 -1h56h44.5q33 4 58.5 24.5t31.5 49.5q4 4 6 4q10 0 4 -6l-20 -105q-8 -33 -37 -55t-66 -27h-44h-56.5h-51h-28.5q-33 2 -58.5 -19t-33.5 -52q0 -8 -6 -4q-4 0 -5 6z" />
<glyph unicode="&#xd2;" horiz-adv-x="948" d="M0 391q0 -86 33 -163.5t92 -137.5q59 -59 137 -92t164 -33t164 33t137 92t92 137t33 164v737q0 86 -33 164.5t-92 139.5q-59 59 -137 91.5t-164 32.5t-164 -32.5t-137 -91.5q-59 -61 -92 -139.5t-33 -164.5v-737zM25 1745q2 6 10 6l393 -141q6 -4 6 -11q-4 -6 -8 -6h-2 l-393 142q-8 4 -6 10zM168 317v887q0 170 106 307q49 18 105 25q-59 -70 -92 -156t-33 -178v-887q0 -92 31.5 -176t91.5 -153q-56 6 -101 24q-109 133 -108 307zM270 315v887q0 94 34 180t99 156q6 2 23 2q84 0 158.5 -32.5t130 -88t88.5 -130.5t33 -161v-737 q0 -84 -33 -158.5t-88.5 -130t-130 -88t-158.5 -32.5q-16 0 -27 2q-63 68 -96 153.5t-33 177.5z" />
<glyph unicode="&#xd3;" horiz-adv-x="948" d="M0 391v737q0 86 33 164t92 140q59 59 137 91.5t164 32.5t164 -32.5t137 -91.5q59 -61 92 -139.5t33 -164.5v-737q0 -86 -33 -163.5t-92 -137.5q-59 -59 -137 -92t-164 -33t-164 33t-137 92t-92 137t-33 164zM168 317q-1 -174 108 -307q45 -18 101 -24q-59 70 -91 153.5 t-32 175.5v887q0 92 32.5 178t92.5 156q-55 -6 -105 -25q-106 -137 -106 -307v-887zM270 315q0 -92 33 -178t96 -153q10 -2 27 -2q84 0 158.5 32.5t130 88t88.5 130t33 158.5v737q0 86 -33 161t-88.5 130.5t-130 88t-158.5 32.5q-16 0 -23 -2q-66 -70 -99.5 -156t-33.5 -180 v-887zM457 1630q-2 6 6 11l393 141q6 0 10 -6q0 -8 -6 -10l-393 -142h-2q-6 0 -8 6z" />
<glyph unicode="&#xd4;" horiz-adv-x="948" d="M0 391q0 -86 33 -163.5t92 -137.5q59 -59 137 -92t164 -33t164 33t137 92t92 137t33 164v737q0 86 -33 164.5t-92 139.5q-59 59 -137 91.5t-164 32.5t-164 -32.5t-137 -91.5q-59 -61 -92 -139.5t-33 -164.5v-737zM168 317v887q0 170 106 307q49 18 105 25 q-59 -70 -92 -156t-33 -178v-887q0 -92 31.5 -176t91.5 -153q-56 6 -101 24q-109 133 -108 307zM270 315v887q0 94 34 180t99 156q6 2 23 2q84 0 158.5 -32.5t130 -88t88.5 -130.5t33 -161v-737q0 -84 -33 -158.5t-88.5 -130t-130 -88t-158.5 -32.5q-16 0 -27 2 q-63 68 -96 153.5t-33 177.5zM301 1604q-6 6 0 12l148 147q4 4 10 0l149 -147q2 -6 0 -12q-2 -2 -6 -2t-6 2l-141 141l-144 -141q-6 -6 -10 0z" />
<glyph unicode="&#xd5;" horiz-adv-x="948" d="M0 391v737q0 86 33 164t92 140q59 59 137 91.5t164 32.5t164 -32.5t137 -91.5q59 -61 92 -139.5t33 -164.5v-737q0 -86 -33 -163.5t-92 -137.5q-59 -59 -137 -92t-164 -33t-164 33t-137 92t-92 137t-33 164zM168 317q-1 -174 108 -307q45 -18 101 -24q-59 70 -91 153.5 t-32 175.5v887q0 92 32.5 178t92.5 156q-55 -6 -105 -25q-106 -137 -106 -307v-887zM246 1612l22 104q8 35 38 58.5t65 23.5q6 0 28.5 -1t51 -1h56.5h44q33 4 58.5 24.5t31.5 49.5q4 4 6 4q10 0 4 -6l-20 -105q-8 -33 -37 -55t-66 -27h-43.5h-56.5h-51.5h-28.5 q-33 2 -58.5 -19.5t-33.5 -51.5q0 -8 -6 -4q-4 0 -4 6zM270 315q0 -92 33 -178t96 -153q10 -2 27 -2q84 0 158.5 32.5t130 88t88.5 130t33 158.5v737q0 86 -33 161t-88.5 130.5t-130 88t-158.5 32.5q-16 0 -23 -2q-66 -70 -99.5 -156t-33.5 -180v-887z" />
<glyph unicode="&#xd6;" horiz-adv-x="948" d="M0 391q0 -86 33 -163.5t92 -137.5q59 -59 137 -92t164 -33t164 33t137 92t92 137t33 164v737q0 86 -33 164.5t-92 139.5q-59 59 -137 91.5t-164 32.5t-164 -32.5t-137 -91.5q-59 -61 -92 -139.5t-33 -164.5v-737zM168 317v887q0 170 106 307q49 18 105 25 q-59 -70 -92 -156t-33 -178v-887q0 -92 31.5 -176t91.5 -153q-56 6 -101 24q-109 133 -108 307zM270 315v887q0 94 34 180t99 156q6 2 23 2q84 0 158.5 -32.5t130 -88t88.5 -130.5t33 -161v-737q0 -84 -33 -158.5t-88.5 -130t-130 -88t-158.5 -32.5q-16 0 -27 2 q-63 68 -96 153.5t-33 177.5zM283 1718q0 18 14 31.5t33 13.5q18 0 31.5 -13.5t13.5 -31.5q0 -20 -13.5 -33.5t-31.5 -13.5t-32.5 13.5t-14.5 33.5zM492 1718q0 18 13 31.5t34 13.5q18 0 31.5 -13.5t13.5 -31.5q0 -20 -13.5 -33.5t-31.5 -13.5q-20 0 -33.5 13.5t-13.5 33.5z " />
<glyph unicode="&#xd7;" horiz-adv-x="493" d="M68 582q-4 6 0 12l151 151l-151 154q-6 4 0 10t12 0l151 -151l152 151q6 6 12 0q10 -6 0 -10l-151 -154l151 -151q6 -6 0 -12q-6 -4 -12 0l-152 153l-151 -153q-6 -4 -12 0z" />
<glyph unicode="&#xd8;" horiz-adv-x="948" d="M0 391v737q0 86 33 164t92 140q59 59 137 91.5t164 32.5t164 -32.5t137 -91.5q59 -61 92 -139.5t33 -164.5v-737q0 -86 -33 -163.5t-92 -137.5q-59 -59 -137 -92t-164 -33t-164 33t-137 92t-92 137t-33 164zM168 317q-1 -174 108 -307q45 -18 101 -24q-59 70 -91 153.5 t-32 175.5v887q0 92 32.5 178t92.5 156q-55 -6 -105 -25q-106 -137 -106 -307v-887zM258 -131l416 1671q4 8 10 6q6 0 6 -10l-418 -1671q0 -6 -6 -6h-2q-12 0 -6 10zM270 315q0 -92 33 -178t96 -153q10 -2 27 -2q84 0 158.5 32.5t130 88t88.5 130t33 158.5v737q0 86 -33 161 t-88.5 130.5t-130 88t-158.5 32.5q-16 0 -23 -2q-66 -70 -99.5 -156t-33.5 -180v-887z" />
<glyph unicode="&#xd9;" horiz-adv-x="1038" d="M0 1511q0 -8 8 -8h51v-1110q0 -86 33 -163.5t92 -137.5q59 -59 137 -92t164 -33t164 33t137 92t92 137t33 164v1110h56q8 0 8 8q0 9 -8 9h-125q-8 0 -8 -9q0 -8 8 -8h53v-1110q0 -84 -33 -158.5t-88 -130t-130 -88t-159 -32.5h-13t-13 2q-63 68 -96 153.5t-33 177.5v1186 h49q8 0 8 8t-8 9h-371q-8 0 -8 -9zM25 1745q2 6 10 6l393 -141q6 -4 6 -11q-4 -6 -8 -6h-2l-393 142q-8 4 -6 10zM227 315v1188h86v-1186q0 -92 31 -175.5t90 -153.5q-59 6 -104 26q-102 133 -103 301z" />
<glyph unicode="&#xda;" horiz-adv-x="1038" d="M0 1511q0 8 8 9h371q8 0 8 -9q0 -8 -8 -8h-49v-1186q0 -92 32.5 -178t96.5 -153q6 -2 13 -2h13q84 0 159 32.5t130 88t88 130t33 158.5v1110h-53q-8 0 -8 8t8 9h125q8 0 8 -9q0 -8 -8 -8h-56v-1110q0 -86 -32.5 -163.5t-92.5 -137.5q-59 -59 -137 -92t-164 -33t-163.5 33 t-137.5 92q-59 59 -92 137t-33 164v1110h-51q-8 0 -8 8zM227 315q0 -168 103 -301q45 -20 104 -26q-59 70 -90 153.5t-31 175.5v1186h-86v-1188zM557 1610q-2 6 6 10l393 141q7 0 11 -6q0 -8 -6 -10l-394 -141h-2q-6 0 -8 6z" />
<glyph unicode="&#xdb;" horiz-adv-x="1038" d="M0 1511q0 -8 8 -8h51v-1110q0 -86 33 -163.5t92 -137.5q59 -59 137 -92t164 -33t164 33t137 92t92 137t33 164v1110h56q8 0 8 8q0 9 -8 9h-125q-8 0 -8 -9q0 -8 8 -8h53v-1110q0 -84 -33 -158.5t-88 -130t-130 -88t-159 -32.5h-13t-13 2q-63 68 -96 153.5t-33 177.5v1186 h49q8 0 8 8t-8 9h-371q-8 0 -8 -9zM227 315v1188h86v-1186q0 -92 31 -175.5t90 -153.5q-59 6 -104 26q-102 133 -103 301zM362 1604q-6 6 0 12l148 147q4 4 10 0l150 -147q2 -6 0 -12q-2 -2 -6 -2t-7 2l-141 141l-143 -141q-6 -6 -11 0z" />
<glyph unicode="&#xdc;" horiz-adv-x="1038" d="M0 1511q0 -8 8 -8h51v-1110q0 -86 33 -163.5t92 -137.5q59 -59 137 -92t164 -33t164 33t137 92t92 137t33 164v1110h56q8 0 8 8q0 9 -8 9h-125q-8 0 -8 -9q0 -8 8 -8h53v-1110q0 -84 -33 -158.5t-88 -130t-130 -88t-159 -32.5h-13t-13 2q-63 68 -96 153.5t-33 177.5v1186 h49q8 0 8 8t-8 9h-371q-8 0 -8 -9zM227 315v1188h86v-1186q0 -92 31 -175.5t90 -153.5q-59 6 -104 26q-102 133 -103 301zM446 1718q0 18 14.5 31.5t33.5 13.5q18 0 31.5 -13.5t13.5 -31.5q0 -20 -13.5 -33.5t-31.5 -13.5t-33 13.5t-15 33.5zM655 1718q0 18 13.5 31.5 t33.5 13.5q18 0 32 -13.5t14 -31.5q0 -20 -13.5 -33.5t-32.5 -13.5q-20 0 -33.5 13.5t-13.5 33.5z" />
<glyph unicode="&#xdd;" horiz-adv-x="925" d="M0 1511q0 8 8 9h371q8 0 8 -9q0 -8 -8 -8h-53l260 -776l196 776h-53q-8 0 -8 8t8 9h125q8 0 8 -9q0 -8 -8 -8h-55l-203 -805q-2 0 -2 -2v-680h57q8 0 8 -8t-8 -8h-370q-8 0 -9 8q0 8 9 8h51v684l-271 803h-53q-8 0 -8 8zM223 1503l269 -803v-684h86v684l-271 803h-84z M434 1599q-2 6 6 11l394 141q6 0 10 -6q0 -8 -6 -10l-394 -142h-2q-6 0 -8 6z" />
<glyph unicode="&#xde;" horiz-adv-x="876" d="M35 1599q-4 6 4 11l389 139q0 2 6 2q4 0 6 -2l389 -139q8 -4 5 -11q0 -6 -9 -6h-2l-389 140l-389 -140h-4q-6 0 -6 6z" />
<glyph unicode="&#xdf;" horiz-adv-x="448" d="M8 743q-2 6 6 11l394 141q6 0 10 -6q0 -8 -6 -10l-394 -142h-2q-6 0 -8 6z" />
<glyph unicode="&#xe0;" horiz-adv-x="1021" d="M0 8q0 -8 8 -8h125q8 0 8 8t-8 8h-53l100 457h316l137 -457h-49q-8 0 -9 -8q0 -8 9 -8h370q8 0 9 8q0 8 -9 8h-59l-420 1497q0 6 -8 7h-66q-8 0 -8 -7l-330 -1497h-55q-8 0 -8 -8zM25 1745q2 6 10 6l393 -141q6 -4 6 -11q-4 -6 -8 -6h-2l-393 142q-8 4 -6 10zM184 489 l131 594l177 -594h-308zM391 1427l17 76h53l416 -1487h-89z" />
<glyph unicode="&#xe1;" horiz-adv-x="1021" d="M0 8q0 8 8 8h55l330 1497q0 6 8 7h66q8 0 8 -7l420 -1497h59q8 0 9 -8q0 -8 -9 -8h-370q-8 0 -9 8q0 8 9 8h49l-137 457h-316l-100 -457h53q8 0 8 -8t-8 -8h-125q-8 0 -8 8zM184 489h308l-177 594zM391 1427l397 -1411h89l-416 1487h-53zM435 1607q-2 6 6 11l393 141 q6 0 10 -6q0 -8 -6 -10l-393 -142h-2q-6 0 -8 6z" />
<glyph unicode="&#xe2;" horiz-adv-x="1021" d="M0 8q0 -8 8 -8h125q8 0 8 8t-8 8h-53l100 457h316l137 -457h-49q-8 0 -9 -8q0 -8 9 -8h370q8 0 9 8q0 8 -9 8h-59l-420 1497q0 6 -8 7h-66q-8 0 -8 -7l-330 -1497h-55q-8 0 -8 -8zM184 489l131 594l177 -594h-308zM291 1604q-6 6 0 12l147 147q4 4 11 0l149 -147 q2 -6 0 -12q-2 -2 -6 -2t-6 2l-142 141l-143 -141q-6 -6 -10 0zM391 1427l17 76h53l416 -1487h-89z" />
<glyph unicode="&#xe3;" horiz-adv-x="1021" d="M0 8q0 8 8 8h55l330 1497q0 6 8 7h66q8 0 8 -7l420 -1497h59q8 0 9 -8q0 -8 -9 -8h-370q-8 0 -9 8q0 8 9 8h49l-137 457h-316l-100 -457h53q8 0 8 -8t-8 -8h-125q-8 0 -8 8zM184 489h308l-177 594zM229 1591l23 104q8 35 38 58.5t64 23.5q6 0 29 -1t51.5 -1h56h44.5 q33 4 58.5 24.5t31.5 49.5q4 4 6 4q10 0 4 -6l-20 -105q-8 -33 -37 -55t-66 -27h-44h-56.5h-51h-28.5q-33 2 -58.5 -19t-33.5 -52q0 -8 -6 -4q-4 0 -5 6zM391 1427l397 -1411h89l-416 1487h-53z" />
<glyph unicode="&#xe4;" horiz-adv-x="1021" d="M0 8q0 -8 8 -8h125q8 0 8 8t-8 8h-53l100 457h316l137 -457h-49q-8 0 -9 -8q0 -8 9 -8h370q8 0 9 8q0 8 -9 8h-59l-420 1497q0 6 -8 7h-66q-8 0 -8 -7l-330 -1497h-55q-8 0 -8 -8zM184 489l131 594l177 -594h-308zM283 1718q0 18 14 31.5t33 13.5q18 0 31.5 -13.5 t13.5 -31.5q0 -20 -13.5 -33.5t-31.5 -13.5t-32.5 13.5t-14.5 33.5zM391 1427l17 76h53l416 -1487h-89zM492 1718q0 18 13 31.5t34 13.5q18 0 31.5 -13.5t13.5 -31.5q0 -20 -13.5 -33.5t-31.5 -13.5q-20 0 -33.5 13.5t-13.5 33.5z" />
<glyph unicode="&#xe5;" horiz-adv-x="1021" d="M0 8q0 8 8 8h55l330 1497q0 6 8 7h66q8 0 8 -7l420 -1497h59q8 0 9 -8q0 -8 -9 -8h-370q-8 0 -9 8q0 8 9 8h49l-137 457h-316l-100 -457h53q8 0 8 -8t-8 -8h-125q-8 0 -8 8zM184 489h308l-177 594zM346 1730q0 35 23.5 58.5t58.5 23.5t59.5 -23.5t24.5 -58.5t-24.5 -59.5 t-59.5 -24.5t-58.5 24.5t-23.5 59.5zM391 1427l397 -1411h89l-416 1487h-53zM428 1663q29 0 48.5 19t19.5 48t-19.5 47.5t-48.5 18.5v-133z" />
<glyph unicode="&#xe6;" horiz-adv-x="436" />
<glyph unicode="&#xe7;" horiz-adv-x="931" d="M0 393v737q0 86 33 164t92 140q59 59 137 92t164 33q78 0 150.5 -27t132.5 -78q94 -80 129 -190v155q0 8 8 8t8 -8v-303q0 -8 -8 -8t-8 8v78q-12 74 -49 138.5t-92.5 110.5t-125 72.5t-145.5 26.5q-66 -70 -99.5 -156t-33.5 -180v-887q0 -94 33.5 -180t99.5 -155 q76 0 145.5 26.5t125 72.5t92 109.5t49.5 137.5q2 6 10 6q10 0 6 -10q-12 -76 -50 -141.5t-94.5 -113.5t-128 -76t-151.5 -28v-96q55 -4 94 -44t39 -95q0 -59 -41 -99.5t-98 -40.5q-8 0 -8 9q0 8 8 8q51 0 87 36t36 87t-36 87t-87 36h-2q-8 0 -8 8v104q-82 4 -156 35 t-133 90t-92 137t-33 164zM190 319q0 -88 31 -169.5t88 -149.5q23 -6 46.5 -10t47.5 -6q-61 72 -94 157.5t-33 177.5v887q0 92 33 178t94 156q-47 0 -96 -16q-55 -66 -86 -148t-31 -170v-887z" />
<glyph unicode="&#xe8;" horiz-adv-x="866" d="M0 8q0 -8 8 -8h785q8 0 8 8v72q0 8 -8 8t-9 -8v-64h-458v785h229q8 0 8 8t-8 8h-229v686h397v-45q0 -8 8 -8t8 8v53q0 8 -8 9h-723q-8 0 -8 -9q0 -8 8 -8h55v-1487h-55q-8 0 -8 -8zM25 1745q2 6 10 6l393 -141q6 -4 6 -11q-4 -6 -8 -6h-2l-393 142q-8 4 -6 10zM223 16 v1487h86v-1487h-86z" />
<glyph unicode="&#xe9;" horiz-adv-x="866" d="M0 8q0 8 8 8h55v1487h-55q-8 0 -8 8t8 9h723q8 0 8 -9v-53q0 -8 -8 -8t-8 8v45h-397v-686h229q8 0 8 -8t-8 -8h-229v-785h458v64q1 8 9 8t8 -8v-72q0 -8 -8 -8h-785q-8 0 -8 8zM223 16h86v1487h-86v-1487zM375 1615q-2 6 6 11l393 141q6 0 10 -6q0 -8 -6 -10l-393 -142 h-2q-6 0 -8 6z" />
<glyph unicode="&#xea;" horiz-adv-x="866" d="M0 8q0 -8 8 -8h785q8 0 8 8v72q0 8 -8 8t-9 -8v-64h-458v785h229q8 0 8 8t-8 8h-229v686h397v-45q0 -8 8 -8t8 8v53q0 8 -8 9h-723q-8 0 -8 -9q0 -8 8 -8h55v-1487h-55q-8 0 -8 -8zM223 16v1487h86v-1487h-86zM301 1604q-6 6 0 12l148 147q4 4 10 0l149 -147q2 -6 0 -12 q-2 -2 -6 -2t-6 2l-141 141l-144 -141q-6 -6 -10 0z" />
<glyph unicode="&#xeb;" horiz-adv-x="866" d="M0 8q0 -8 8 -8h785q8 0 8 8v72q0 8 -8 8t-9 -8v-64h-458v785h229q8 0 8 8t-8 8h-229v686h397v-45q0 -8 8 -8t8 8v53q0 8 -8 9h-723q-8 0 -8 -9q0 -8 8 -8h55v-1487h-55q-8 0 -8 -8zM223 16v1487h86v-1487h-86zM283 1718q0 18 14 31.5t33 13.5q18 0 31.5 -13.5t13.5 -31.5 q0 -20 -13.5 -33.5t-31.5 -13.5t-32.5 13.5t-14.5 33.5zM492 1718q0 18 13 31.5t34 13.5q18 0 31.5 -13.5t13.5 -31.5q0 -20 -13.5 -33.5t-31.5 -13.5q-20 0 -33.5 13.5t-13.5 33.5z" />
<glyph unicode="&#xec;" horiz-adv-x="591" d="M29 1745q2 6 10 6l393 -141q6 -4 6 -11q-4 -6 -8 -6h-2l-393 142q-8 4 -6 10zM166 8q0 8 8 8h51v1487h-51q-8 0 -8 8t8 9h371q8 0 8 -9q0 -8 -8 -8h-57v-1487h57q8 0 8 -8t-8 -8h-371q-8 0 -8 8zM385 16h86v1487h-86v-1487z" />
<glyph unicode="&#xed;" horiz-adv-x="739" d="M0 8q0 8 8 8h51v1487h-51q-8 0 -8 8t8 9h371q8 0 8 -9q0 -8 -8 -8h-57v-1487h57q8 0 8 -8t-8 -8h-371q-8 0 -8 8zM181 1615q-2 6 6 11l393 141q6 0 10 -6q0 -8 -6 -10l-393 -142h-2q-6 0 -8 6zM219 16h86v1487h-86v-1487z" />
<glyph unicode="&#xee;" horiz-adv-x="456" d="M0 8q0 -8 8 -8h371q8 0 8 8t-8 8h-57v1487h57q8 0 8 8t-8 9h-371q-8 0 -8 -9q0 -8 8 -8h51v-1487h-51q-8 0 -8 -8zM31 1604q-6 6 0 12l147 147q4 4 10 0l150 -147q2 -6 0 -12q-2 -2 -6 -2t-6 2l-142 141l-143 -141q-6 -6 -10 0zM219 16v1487h86v-1487h-86z" />
<glyph unicode="&#xef;" horiz-adv-x="466" d="M0 8q0 -8 8 -8h371q8 0 8 8t-8 8h-57v1487h57q8 0 8 8t-8 9h-371q-8 0 -8 -9q0 -8 8 -8h51v-1487h-51q-8 0 -8 -8zM18 1718q0 18 14.5 31.5t33.5 13.5q18 0 31.5 -13.5t13.5 -31.5q0 -20 -13.5 -33.5t-31.5 -13.5t-33 13.5t-15 33.5zM219 16v1487h86v-1487h-86zM227 1718 q0 18 13.5 31.5t33.5 13.5q18 0 31.5 -13.5t13.5 -31.5q0 -20 -13 -33.5t-32 -13.5q-20 0 -33.5 13.5t-13.5 33.5z" />
<glyph unicode="&#xf0;" horiz-adv-x="186" d="M0 -33h16v-96q55 -4 93 -44t38 -95q0 -59 -39.5 -99.5t-99.5 -40.5q-8 0 -8 9q0 8 8 8q53 0 88 36t35 87t-35 87t-88 36q-8 0 -8 8v104z" />
<glyph unicode="&#xf1;" horiz-adv-x="913" d="M0 6q0 8 8 8h55l-2 1489h-53q-8 0 -8 8t8 9h135q4 0 7 -4l622 -1008v991h-55q-8 0 -8 8t8 9h125q8 0 8 -9q0 -8 -8 -8h-54v-1491q0 -8 -8 -8q-10 0 -10 8l-690 1129v-1123h53q8 0 8 -8t-8 -8h-125q-8 0 -8 8zM80 1442l692 -1131v166l-635 1026h-57v-61zM301 1612l23 104 q8 35 38 58.5t64 23.5q6 0 29 -1t51.5 -1h56h44.5q33 4 58.5 24.5t31.5 49.5q4 4 6 4q10 0 4 -6l-20 -105q-8 -33 -37 -55t-66 -27h-44h-56.5h-51h-28.5q-33 2 -58.5 -19t-33.5 -52q0 -8 -6 -4q-4 0 -5 6z" />
<glyph unicode="&#xf2;" d="M0 391q0 -86 33 -163.5t92 -137.5q59 -59 137 -92t164 -33t164 33t137 92t92 137t33 164v737q0 86 -33 164.5t-92 139.5q-59 59 -137 91.5t-164 32.5t-164 -32.5t-137 -91.5q-59 -61 -92 -139.5t-33 -164.5v-737zM25 1745q2 6 10 6l393 -141q6 -4 6 -11q-4 -6 -8 -6h-2 l-393 142q-8 4 -6 10zM168 317v887q0 170 106 307q49 18 105 25q-59 -70 -92 -156t-33 -178v-887q0 -92 31.5 -176t91.5 -153q-56 6 -101 24q-109 133 -108 307zM270 315v887q0 94 34 180t99 156q6 2 23 2q84 0 158.5 -32.5t130 -88t88.5 -130.5t33 -161v-737 q0 -84 -33 -158.5t-88.5 -130t-130 -88t-158.5 -32.5q-16 0 -27 2q-63 68 -96 153.5t-33 177.5z" />
<glyph unicode="&#xf3;" d="M0 391v737q0 86 33 164t92 140q59 59 137 91.5t164 32.5t164 -32.5t137 -91.5q59 -61 92 -139.5t33 -164.5v-737q0 -86 -33 -163.5t-92 -137.5q-59 -59 -137 -92t-164 -33t-164 33t-137 92t-92 137t-33 164zM168 317q-1 -174 108 -307q45 -18 101 -24q-59 70 -91 153.5 t-32 175.5v887q0 92 32.5 178t92.5 156q-55 -6 -105 -25q-106 -137 -106 -307v-887zM270 315q0 -92 33 -178t96 -153q10 -2 27 -2q84 0 158.5 32.5t130 88t88.5 130t33 158.5v737q0 86 -33 161t-88.5 130.5t-130 88t-158.5 32.5q-16 0 -23 -2q-66 -70 -99.5 -156t-33.5 -180 v-887zM435 1605q-2 6 6 11l393 141q6 0 10 -6q0 -8 -6 -10l-393 -142h-2q-6 0 -8 6z" />
<glyph unicode="&#xf4;" d="M0 391q0 -86 33 -163.5t92 -137.5q59 -59 137 -92t164 -33t164 33t137 92t92 137t33 164v737q0 86 -33 164.5t-92 139.5q-59 59 -137 91.5t-164 32.5t-164 -32.5t-137 -91.5q-59 -61 -92 -139.5t-33 -164.5v-737zM168 317v887q0 170 106 307q49 18 105 25 q-59 -70 -92 -156t-33 -178v-887q0 -92 31.5 -176t91.5 -153q-56 6 -101 24q-109 133 -108 307zM270 315v887q0 94 34 180t99 156q6 2 23 2q84 0 158.5 -32.5t130 -88t88.5 -130.5t33 -161v-737q0 -84 -33 -158.5t-88.5 -130t-130 -88t-158.5 -32.5q-16 0 -27 2 q-63 68 -96 153.5t-33 177.5zM301 1604q-6 6 0 12l148 147q4 4 10 0l149 -147q2 -6 0 -12q-2 -2 -6 -2t-6 2l-141 141l-144 -141q-6 -6 -10 0z" />
<glyph unicode="&#xf5;" d="M0 391v737q0 86 33 164t92 140q59 59 137 91.5t164 32.5t164 -32.5t137 -91.5q59 -61 92 -139.5t33 -164.5v-737q0 -86 -33 -163.5t-92 -137.5q-59 -59 -137 -92t-164 -33t-164 33t-137 92t-92 137t-33 164zM168 317q-1 -174 108 -307q45 -18 101 -24q-59 70 -91 153.5 t-32 175.5v887q0 92 32.5 178t92.5 156q-55 -6 -105 -25q-106 -137 -106 -307v-887zM244 1612l22 104q8 35 38 58.5t65 23.5q6 0 28.5 -1t51 -1h56h44.5q33 4 58.5 24.5t31.5 49.5q4 4 6 4q10 0 4 -6l-20 -105q-8 -33 -37 -55t-66 -27h-43.5h-56.5h-51.5h-28.5 q-33 2 -58.5 -19.5t-33.5 -51.5q0 -8 -6 -4q-4 0 -4 6zM270 315q0 -92 33 -178t96 -153q10 -2 27 -2q84 0 158.5 32.5t130 88t88.5 130t33 158.5v737q0 86 -33 161t-88.5 130.5t-130 88t-158.5 32.5q-16 0 -23 -2q-66 -70 -99.5 -156t-33.5 -180v-887z" />
<glyph unicode="&#xf6;" d="M0 391q0 -86 33 -163.5t92 -137.5q59 -59 137 -92t164 -33t164 33t137 92t92 137t33 164v737q0 86 -33 164.5t-92 139.5q-59 59 -137 91.5t-164 32.5t-164 -32.5t-137 -91.5q-59 -61 -92 -139.5t-33 -164.5v-737zM168 317v887q0 170 106 307q49 18 105 25 q-59 -70 -92 -156t-33 -178v-887q0 -92 31.5 -176t91.5 -153q-56 6 -101 24q-109 133 -108 307zM270 315v887q0 94 34 180t99 156q6 2 23 2q84 0 158.5 -32.5t130 -88t88.5 -130.5t33 -161v-737q0 -84 -33 -158.5t-88.5 -130t-130 -88t-158.5 -32.5q-16 0 -27 2 q-63 68 -96 153.5t-33 177.5zM283 1718q0 18 14 31.5t33 13.5q18 0 31.5 -13.5t13.5 -31.5q0 -20 -13.5 -33.5t-31.5 -13.5t-32.5 13.5t-14.5 33.5zM492 1718q0 18 13 31.5t34 13.5q18 0 31.5 -13.5t13.5 -31.5q0 -20 -13.5 -33.5t-31.5 -13.5q-20 0 -33.5 13.5t-13.5 33.5z " />
<glyph unicode="&#xf7;" horiz-adv-x="520" d="M0 745q0 8 8 9h447q8 0 8 -9q0 -8 -8 -8h-447q-8 0 -8 8zM150 598q0 35 23 58.5t58 23.5t59.5 -23.5t24.5 -58.5t-24.5 -59.5t-59.5 -24.5t-58 24.5t-23 59.5zM150 883q0 35 23 59.5t58 24.5t59.5 -24.5t24.5 -59.5t-24.5 -58.5t-59.5 -23.5t-58 23.5t-23 58.5zM231 530 q29 0 48.5 19.5t19.5 48.5t-19.5 47.5t-48.5 18.5v-134zM231 817q29 0 48.5 18.5t19.5 47.5t-19.5 48t-48.5 19v-133z" />
<glyph unicode="&#xf8;" d="M0 391v737q0 86 33 164t92 140q59 59 137 91.5t164 32.5t164 -32.5t137 -91.5q59 -61 92 -139.5t33 -164.5v-737q0 -86 -33 -163.5t-92 -137.5q-59 -59 -137 -92t-164 -33t-164 33t-137 92t-92 137t-33 164zM168 317q-1 -174 108 -307q45 -18 101 -24q-59 70 -91 153.5 t-32 175.5v887q0 92 32.5 178t92.5 156q-55 -6 -105 -25q-106 -137 -106 -307v-887zM266 -131l416 1671q4 8 10 6q6 0 6 -10l-418 -1671q0 -6 -6 -6h-2q-12 0 -6 10zM270 315q0 -92 33 -178t96 -153q10 -2 27 -2q84 0 158.5 32.5t130 88t88.5 130t33 158.5v737q0 86 -33 161 t-88.5 130.5t-130 88t-158.5 32.5q-16 0 -23 -2q-66 -70 -99.5 -156t-33.5 -180v-887z" />
<glyph unicode="&#xf9;" horiz-adv-x="1036" d="M0 1511q0 -8 8 -8h51v-1110q0 -86 33 -163.5t92 -137.5q59 -59 137 -92t164 -33t164 33t137 92t92 137t33 164v1110h56q8 0 8 8q0 9 -8 9h-125q-8 0 -8 -9q0 -8 8 -8h53v-1110q0 -84 -33 -158.5t-88 -130t-130 -88t-159 -32.5h-13t-13 2q-63 68 -96 153.5t-33 177.5v1186 h49q8 0 8 8t-8 9h-371q-8 0 -8 -9zM209 1745q2 6 10 6l393 -141q6 -4 6 -11q-4 -6 -8 -6h-2l-393 142q-8 4 -6 10zM227 315v1188h86v-1186q0 -92 31 -175.5t90 -153.5q-59 6 -104 26q-102 133 -103 301z" />
<glyph unicode="&#xfa;" horiz-adv-x="1036" d="M0 1511q0 8 8 9h371q8 0 8 -9q0 -8 -8 -8h-49v-1186q0 -92 32.5 -178t96.5 -153q6 -2 13 -2h13q84 0 159 32.5t130 88t88 130t33 158.5v1110h-53q-8 0 -8 8t8 9h125q8 0 8 -9q0 -8 -8 -8h-56v-1110q0 -86 -32.5 -163.5t-92.5 -137.5q-59 -59 -137 -92t-164 -33t-163.5 33 t-137.5 92q-59 59 -92 137t-33 164v1110h-51q-8 0 -8 8zM227 315q0 -168 103 -301q45 -20 104 -26q-59 70 -90 153.5t-31 175.5v1186h-86v-1188zM561 1599q-2 6 6 11l394 141q6 0 10 -6q0 -8 -6 -10l-394 -142h-2q-6 0 -8 6z" />
<glyph unicode="&#xfb;" horiz-adv-x="1036" d="M0 1511q0 -8 8 -8h51v-1110q0 -86 33 -163.5t92 -137.5q59 -59 137 -92t164 -33t164 33t137 92t92 137t33 164v1110h56q8 0 8 8q0 9 -8 9h-125q-8 0 -8 -9q0 -8 8 -8h53v-1110q0 -84 -33 -158.5t-88 -130t-130 -88t-159 -32.5h-13t-13 2q-63 68 -96 153.5t-33 177.5v1186 h49q8 0 8 8t-8 9h-371q-8 0 -8 -9zM227 315v1188h86v-1186q0 -92 31 -175.5t90 -153.5q-59 6 -104 26q-102 133 -103 301zM383 1604q-6 6 0 12l147 147q4 4 11 0l149 -147q2 -6 0 -12q-2 -2 -6 -2t-6 2l-141 141l-144 -141q-6 -6 -10 0z" />
<glyph unicode="&#xfc;" horiz-adv-x="1036" d="M0 1511q0 -8 8 -8h51v-1110q0 -86 33 -163.5t92 -137.5q59 -59 137 -92t164 -33t164 33t137 92t92 137t33 164v1110h56q8 0 8 8q0 9 -8 9h-125q-8 0 -8 -9q0 -8 8 -8h53v-1110q0 -84 -33 -158.5t-88 -130t-130 -88t-159 -32.5h-13t-13 2q-63 68 -96 153.5t-33 177.5v1186 h49q8 0 8 8t-8 9h-371q-8 0 -8 -9zM227 315v1188h86v-1186q0 -92 31 -175.5t90 -153.5q-59 6 -104 26q-102 133 -103 301zM446 1718q0 18 14.5 31.5t33.5 13.5q18 0 31.5 -13.5t13.5 -31.5q0 -20 -13.5 -33.5t-31.5 -13.5t-33 13.5t-15 33.5zM655 1718q0 18 13.5 31.5 t33.5 13.5q18 0 32 -13.5t14 -31.5q0 -20 -13.5 -33.5t-32.5 -13.5q-20 0 -33.5 13.5t-13.5 33.5z" />
<glyph unicode="&#xfd;" horiz-adv-x="899" d="M0 1511q0 8 8 9h371q8 0 8 -9q0 -8 -8 -8h-53l260 -776l196 776h-53q-8 0 -8 8t8 9h125q8 0 8 -9q0 -8 -8 -8h-55l-203 -805q-2 0 -2 -2v-680h57q8 0 8 -8t-8 -8h-370q-8 0 -9 8q0 8 9 8h51v684l-271 803h-53q-8 0 -8 8zM223 1503l269 -803v-684h86v684l-271 803h-84z M474 1599q-2 6 6 11l393 141q6 0 10 -6q0 -8 -6 -10l-393 -142h-2q-6 0 -8 6z" />
<glyph unicode="&#xfe;" horiz-adv-x="876" d="M35 1599q-4 6 4 11l389 139q0 2 6 2q4 0 6 -2l389 -139q8 -4 5 -11q0 -6 -9 -6h-2l-389 140l-389 -140h-4q-6 0 -6 6z" />
<glyph unicode="&#xff;" horiz-adv-x="899" d="M0 1511q0 8 8 9h371q8 0 8 -9q0 -8 -8 -8h-53l260 -776l196 776h-53q-8 0 -8 8t8 9h125q8 0 8 -9q0 -8 -8 -8h-55l-203 -805q-2 0 -2 -2v-680h57q8 0 8 -8t-8 -8h-370q-8 0 -9 8q0 8 9 8h51v684l-271 803h-53q-8 0 -8 8zM223 1503l269 -803v-684h86v684l-271 803h-84z " />
<glyph unicode="&#x152;" horiz-adv-x="487" d="M25 1745q2 6 10 6l393 -141q6 -4 6 -11q-4 -6 -8 -6h-2l-393 142q-8 4 -6 10z" />
<glyph unicode="&#x153;" horiz-adv-x="215" d="M0 78q0 35 23.5 58.5t58.5 23.5t59.5 -23.5t24.5 -58.5t-24.5 -59.5t-59.5 -24.5t-58.5 24.5t-23.5 59.5zM82 10q29 0 48.5 19.5t19.5 48.5t-19.5 47t-48.5 18v-133z" />
<glyph unicode="&#x178;" horiz-adv-x="925" d="M0 1511q0 -8 8 -8h53l271 -803v-684h-51q-8 0 -9 -8q0 -8 9 -8h370q8 0 8 8t-8 8h-57v680q0 2 2 2l203 805h55q8 0 8 8q0 9 -8 9h-125q-8 0 -8 -9q0 -8 8 -8h53l-196 -776l-260 776h53q8 0 8 8t-8 9h-371q-8 0 -8 -9zM223 1503h84l271 -803v-684h-86v684zM365 1718 q0 18 14 31.5t33 13.5q18 0 31.5 -13.5t13.5 -31.5q0 -20 -13.5 -33.5t-31.5 -13.5t-32.5 13.5t-14.5 33.5zM573 1718q0 18 13.5 31.5t34.5 13.5q18 0 31.5 -13.5t13.5 -31.5q0 -20 -13.5 -33.5t-31.5 -13.5q-20 0 -34 13.5t-14 33.5z" />
<glyph unicode="&#x2c6;" horiz-adv-x="452" d="M76 1604q-6 6 0 12l147 147q4 4 10 0l150 -147q2 -6 0 -12q-2 -2 -6 -2t-6 2l-142 141l-143 -141q-6 -6 -10 0z" />
<glyph unicode="&#x2dc;" horiz-adv-x="473" d="M20 1530l23 104q8 35 38 58.5t64 23.5q6 0 29 -1t51.5 -1h56h44.5q33 4 58.5 24.5t31.5 49.5q4 4 6 4q10 0 4 -6l-20 -105q-8 -33 -37 -55t-66 -27h-44h-56.5h-51h-28.5q-33 2 -58.5 -19t-33.5 -52q0 -8 -6 -4q-4 0 -5 6z" />
<glyph unicode="&#x2000;" horiz-adv-x="1089" />
<glyph unicode="&#x2001;" horiz-adv-x="2179" />
<glyph unicode="&#x2002;" horiz-adv-x="1089" />
<glyph unicode="&#x2003;" horiz-adv-x="2179" />
<glyph unicode="&#x2004;" horiz-adv-x="726" />
<glyph unicode="&#x2005;" horiz-adv-x="544" />
<glyph unicode="&#x2006;" horiz-adv-x="363" />
<glyph unicode="&#x2007;" horiz-adv-x="363" />
<glyph unicode="&#x2008;" horiz-adv-x="272" />
<glyph unicode="&#x2009;" horiz-adv-x="435" />
<glyph unicode="&#x200a;" horiz-adv-x="121" />
<glyph unicode="&#x2010;" horiz-adv-x="536" d="M0 745q0 8 8 9h447q8 0 8 -9q0 -8 -8 -8h-447q-8 0 -8 8zM0 745q0 8 8 9h447q8 0 8 -9q0 -8 -8 -8h-447q-8 0 -8 8z" />
<glyph unicode="&#x2011;" horiz-adv-x="536" d="M0 745q0 8 8 9h447q8 0 8 -9q0 -8 -8 -8h-447q-8 0 -8 8zM0 745q0 8 8 9h447q8 0 8 -9q0 -8 -8 -8h-447q-8 0 -8 8z" />
<glyph unicode="&#x2012;" horiz-adv-x="536" d="M0 745q0 8 8 9h447q8 0 8 -9q0 -8 -8 -8h-447q-8 0 -8 8zM0 745q0 8 8 9h447q8 0 8 -9q0 -8 -8 -8h-447q-8 0 -8 8z" />
<glyph unicode="&#x2013;" horiz-adv-x="528" d="M0 745q0 8 8 9h447q8 0 8 -9q0 -8 -8 -8h-447q-8 0 -8 8z" />
<glyph unicode="&#x2014;" horiz-adv-x="528" d="M0 745q0 8 8 9h447q8 0 8 -9q0 -8 -8 -8h-447q-8 0 -8 8z" />
<glyph unicode="&#x2018;" horiz-adv-x="196" d="M0 1219q0 20 10 36l103 258q4 8 10 5q8 -4 4 -11l-86 -219q18 12 41 12q35 0 59.5 -23.5t24.5 -57.5q0 -35 -24.5 -59.5t-59.5 -24.5t-58.5 24.5t-23.5 59.5zM16 1219q0 -29 19.5 -48.5t46.5 -19.5v133q-27 0 -46.5 -19t-19.5 -46z" />
<glyph unicode="&#x2019;" horiz-adv-x="219" d="M0 1436q0 35 23.5 58.5t58.5 23.5t59.5 -23.5t24.5 -58.5q0 -18 -10 -39l-103 -256q-4 -6 -8 -6h-2q-6 2 -6 12l88 217q-18 -12 -43 -12q-35 0 -58.5 24.5t-23.5 59.5zM82 1368q29 0 48.5 19.5t19.5 48.5t-19.5 47t-48.5 18v-133z" />
<glyph unicode="&#x201a;" horiz-adv-x="1705" />
<glyph unicode="&#x201c;" horiz-adv-x="413" d="M0 1219q0 20 10 36l103 258q4 8 10 5q8 -4 4 -11l-86 -219q18 12 41 12q35 0 59.5 -23.5t24.5 -57.5q0 -35 -24.5 -59.5t-59.5 -24.5t-58.5 24.5t-23.5 59.5zM16 1219q0 -29 19.5 -48.5t46.5 -19.5v133q-27 0 -46.5 -19t-19.5 -46zM203 1219q0 20 10 36l102 258q4 6 13 5 q8 -4 4 -11l-88 -219q18 12 43 12q35 0 58.5 -23.5t23.5 -57.5q0 -35 -23.5 -59.5t-58.5 -24.5t-59.5 24.5t-24.5 59.5zM219 1219q0 -29 19.5 -48.5t48.5 -19.5v133q-29 0 -48.5 -19t-19.5 -46z" />
<glyph unicode="&#x201d;" horiz-adv-x="432" d="M0 1436q0 35 23.5 58.5t58.5 23.5t59.5 -24t24.5 -58q0 -18 -10 -39l-103 -256q-4 -6 -8 -6h-2q-6 2 -6 12l88 217q-18 -12 -43 -12q-35 0 -58.5 24.5t-23.5 59.5zM82 1368q29 0 48.5 19.5t19.5 48.5t-19.5 47t-48.5 18v-133zM203 1436q0 35 24.5 58.5t59.5 23.5 t58.5 -23.5t23.5 -58.5q0 -23 -9 -39l-104 -256q0 -6 -6 -6h-4q-6 4 -4 12l88 217q-18 -12 -43 -12q-35 0 -59.5 24.5t-24.5 59.5zM287 1368q29 0 47 19.5t18 48.5t-18.5 47t-46.5 18v-133z" />
<glyph unicode="&#x201e;" horiz-adv-x="456" d="M0 78q0 35 23.5 58.5t58.5 23.5t59.5 -23.5t24.5 -58.5q0 -18 -10 -39l-103 -256q-4 -6 -8 -6h-2q-6 2 -6 12l88 217q-18 -12 -43 -12q-35 0 -58.5 24.5t-23.5 59.5zM82 10q29 0 48.5 19.5t19.5 48.5t-19.5 47t-48.5 18v-133zM233 78q0 35 24 58.5t58 23.5 q35 0 59.5 -23.5t24.5 -58.5q0 -18 -10 -39l-102 -256q-4 -6 -8 -6h-3q-6 2 -6 12l88 217q-18 -12 -43 -12q-35 0 -58.5 24.5t-23.5 59.5zM315 10q29 0 48.5 19.5t19.5 48.5t-19.5 47t-48.5 18v-133z" />
<glyph unicode="&#x2022;" horiz-adv-x="202" d="M6 745q0 35 23.5 59.5t58.5 24.5t59.5 -24.5t24.5 -59.5t-24.5 -58t-59.5 -23t-58.5 23.5t-23.5 57.5zM88 680q29 0 48.5 18.5t19.5 46.5q0 29 -19.5 48.5t-48.5 19.5v-133z" />
<glyph unicode="&#x2026;" horiz-adv-x="645" d="M6 78q0 35 23.5 58.5t58.5 23.5t59.5 -23.5t24.5 -58.5t-24.5 -59.5t-59.5 -24.5t-58.5 24.5t-23.5 59.5zM88 10q29 0 48.5 19.5t19.5 48.5t-19.5 47t-48.5 18v-133zM221 78q0 35 23.5 58.5t58.5 23.5t59.5 -23.5t24.5 -58.5t-24.5 -59.5t-59.5 -24.5t-58.5 24.5 t-23.5 59.5zM303 10q29 0 48.5 19.5t19.5 48.5t-19.5 47t-48.5 18v-133zM436 78q0 35 23.5 58.5t58.5 23.5t59.5 -23.5t24.5 -58.5t-24.5 -59.5t-59.5 -24.5t-58.5 24.5t-23.5 59.5zM518 10q29 0 48.5 19.5t19.5 48.5t-19.5 47t-48.5 18v-133z" />
<glyph unicode="&#x202f;" horiz-adv-x="435" />
<glyph unicode="&#x2039;" horiz-adv-x="313" d="M2 750q-4 6 0 10l236 299q4 6 12 2q4 -8 0 -12l-232 -293l232 -310q8 -4 -2 -10q0 -2 -4 -2t-6 2z" />
<glyph unicode="&#x203a;" horiz-adv-x="303" d="M-1 441q-1 3 3 5l231 310l-231 293q-4 4 0 12q8 4 12 -2l236 -299q4 -4 0 -10l-236 -314q-2 -2 -6 -2t-4 2q-4 2 -5 5z" />
<glyph unicode="&#x205f;" horiz-adv-x="544" />
<glyph unicode="&#x20ac;" horiz-adv-x="471" d="M12 752q-2 6 6 10l394 141q6 0 10 -6q0 -8 -6 -10l-393 -142h-3q-6 0 -8 7z" />
<glyph unicode="&#x2122;" horiz-adv-x="507" d="M10 1176v14q0 2 2 2h193v-2v-14v-2q-2 0 -2 2v12h-68v-324h12q2 0 3 -2l-3 -2h-65h-2h-12l-2 2q0 2 2 2h10v324h-64v-12l-2 -2q-2 0 -2 2zM113 864h20v324h-20v-324zM219 1190l2 2h80q2 0 2 -2t-2 -2h-10l55 -227l45 227h-12v2v2h82l2 -2q0 -2 -2 -2h-12v-324h12l2 -2 l-2 -2h-82v2v2h12v307l-61 -309l-2 -2h-13q-2 0 -2 2l-75 314v-312h12l2 -2l-2 -2h-27q-2 0 -2 2t2 2h10v324h-12zM268 1188l68 -281l8 45l-55 236h-21zM426 864h18v324h-18v-324z" />
<glyph unicode="&#x25fc;" horiz-adv-x="1515" d="M0 0v1516h1516v-1516h-1516z" />
<glyph unicode="&#xfb01;" horiz-adv-x="989" d="M0 8q0 8 8 8h51v1487h-51q-8 0 -8 8t8 9h752v-76q0 -8 -8 -8t-9 8v59h-421v-698h208q8 0 9 -8q0 -8 -9 -9h-208v-772h57q8 0 8 -8t-8 -8h-371q-8 0 -8 8zM219 16h86v1487h-86v-1487zM557 8q0 8 8 8h51v1487h-51q-8 0 -8 8t8 9h371q8 0 8 -9q0 -8 -8 -8h-57v-1487h57 q8 0 8 -8t-8 -8h-371q-8 0 -8 8zM776 16h86v1487h-86v-1487z" />
<glyph unicode="&#xfb02;" horiz-adv-x="1638" d="M0 8q0 8 8 8h51v1487h-51q-8 0 -8 8t8 9h752v-76q0 -8 -8 -8t-9 8v59h-421v-698h208q8 0 9 -8q0 -8 -9 -9h-208v-772h57q8 0 8 -8t-8 -8h-371q-8 0 -8 8zM219 16h86v1487h-86v-1487zM561 8q0 8 8 8h51v1487h-51q-8 0 -8 8t8 9h371q8 0 8 -9q0 -8 -8 -8h-57v-1487h409v90 q0 9 8 9t9 -9v-98q0 -8 -9 -8h-731q-8 0 -8 8zM780 16h86v1487h-86v-1487z" />
</font>
</defs>
</svg>
